<?xml version="1.0" encoding="utf-8" standalone="no"?>
<!DOCTYPE svg PUBLIC "-//W3C//DTD SVG 1.1//EN"
  "http://www.w3.org/Graphics/SVG/1.1/DTD/svg11.dtd">
<!-- Created with matplotlib (http://matplotlib.org/) -->
<svg height="432pt" version="1.1" viewBox="0 0 954.75 432" width="954.75pt" xmlns="http://www.w3.org/2000/svg" xmlns:xlink="http://www.w3.org/1999/xlink">
 <defs>
  <style type="text/css">
*{stroke-linecap:butt;stroke-linejoin:round;}
  </style>
 </defs>
 <g id="figure_1">
  <g id="patch_1">
   <path d="M 0 432 
L 954.75 432 
L 954.75 0 
L 0 0 
z
" style="fill:#ffffff;"/>
  </g>
  <g id="axes_1">
   <g id="patch_2">
    <path d="M 56.273893 390.2 
L 854.4525 390.2 
L 854.4525 14.3 
L 56.273893 14.3 
z
" style="fill:#ffffff;"/>
   </g>
   <g id="patch_3">
    <path clip-path="url(#p1eb43159bb)" d="M 69.57687 390.2 
L 80.219251 390.2 
L 80.219251 289.717384 
L 69.57687 289.717384 
z
" style="fill:#774c19;"/>
   </g>
   <g id="patch_4">
    <path clip-path="url(#p1eb43159bb)" d="M 202.606638 390.2 
L 213.249019 390.2 
L 213.249019 225.69773 
L 202.606638 225.69773 
z
" style="fill:#774c19;"/>
   </g>
   <g id="patch_5">
    <path clip-path="url(#p1eb43159bb)" d="M 335.636406 390.2 
L 346.278787 390.2 
L 346.278787 226.891064 
L 335.636406 226.891064 
z
" style="fill:#774c19;"/>
   </g>
   <g id="patch_6">
    <path clip-path="url(#p1eb43159bb)" d="M 468.666173 390.2 
L 479.308555 390.2 
L 479.308555 236.945532 
L 468.666173 236.945532 
z
" style="fill:#774c19;"/>
   </g>
   <g id="patch_7">
    <path clip-path="url(#p1eb43159bb)" d="M 601.695941 390.2 
L 612.338323 390.2 
L 612.338323 213.688227 
L 601.695941 213.688227 
z
" style="fill:#774c19;"/>
   </g>
   <g id="patch_8">
    <path clip-path="url(#p1eb43159bb)" d="M 734.725709 390.2 
L 745.36809 390.2 
L 745.36809 311.719291 
L 734.725709 311.719291 
z
" style="fill:#774c19;"/>
   </g>
   <g id="patch_9">
    <path clip-path="url(#p1eb43159bb)" d="M 80.219251 390.2 
L 90.861633 390.2 
L 90.861633 308.398834 
L 80.219251 308.398834 
z
" style="fill:#a37538;"/>
   </g>
   <g id="patch_10">
    <path clip-path="url(#p1eb43159bb)" d="M 213.249019 390.2 
L 223.891401 390.2 
L 223.891401 212.38487 
L 213.249019 212.38487 
z
" style="fill:#a37538;"/>
   </g>
   <g id="patch_11">
    <path clip-path="url(#p1eb43159bb)" d="M 346.278787 390.2 
L 356.921168 390.2 
L 356.921168 229.633191 
L 346.278787 229.633191 
z
" style="fill:#a37538;"/>
   </g>
   <g id="patch_12">
    <path clip-path="url(#p1eb43159bb)" d="M 479.308555 390.2 
L 489.950936 390.2 
L 489.950936 253.626809 
L 479.308555 253.626809 
z
" style="fill:#a37538;"/>
   </g>
   <g id="patch_13">
    <path clip-path="url(#p1eb43159bb)" d="M 612.338323 390.2 
L 622.980704 390.2 
L 622.980704 264.146761 
L 612.338323 264.146761 
z
" style="fill:#a37538;"/>
   </g>
   <g id="patch_14">
    <path clip-path="url(#p1eb43159bb)" d="M 745.36809 390.2 
L 756.010472 390.2 
L 756.010472 352.216454 
L 745.36809 352.216454 
z
" style="fill:#a37538;"/>
   </g>
   <g id="patch_15">
    <path clip-path="url(#p1eb43159bb)" d="M 90.861633 390.2 
L 101.504014 390.2 
L 101.504014 260.050496 
L 90.861633 260.050496 
z
" style="fill:#c8ab73;"/>
   </g>
   <g id="patch_16">
    <path clip-path="url(#p1eb43159bb)" d="M 223.891401 390.2 
L 234.533782 390.2 
L 234.533782 176.914941 
L 223.891401 176.914941 
z
" style="fill:#c8ab73;"/>
   </g>
   <g id="patch_17">
    <path clip-path="url(#p1eb43159bb)" d="M 356.921168 390.2 
L 367.56355 390.2 
L 367.56355 51.851915 
L 356.921168 51.851915 
z
" style="fill:#c8ab73;"/>
   </g>
   <g id="patch_18">
    <path clip-path="url(#p1eb43159bb)" d="M 489.950936 390.2 
L 500.593318 390.2 
L 500.593318 207.46766 
L 489.950936 207.46766 
z
" style="fill:#c8ab73;"/>
   </g>
   <g id="patch_19">
    <path clip-path="url(#p1eb43159bb)" d="M 622.980704 390.2 
L 633.623085 390.2 
L 633.623085 298.40643 
L 622.980704 298.40643 
z
" style="fill:#c8ab73;"/>
   </g>
   <g id="patch_20">
    <path clip-path="url(#p1eb43159bb)" d="M 756.010472 390.2 
L 766.652853 390.2 
L 766.652853 341.324113 
L 756.010472 341.324113 
z
" style="fill:#c8ab73;"/>
   </g>
   <g id="patch_21">
    <path clip-path="url(#p1eb43159bb)" d="M 101.504014 390.2 
L 112.146396 390.2 
L 112.146396 212.322805 
L 101.504014 212.322805 
z
" style="fill:#e5d7b3;"/>
   </g>
   <g id="patch_22">
    <path clip-path="url(#p1eb43159bb)" d="M 234.533782 390.2 
L 245.176163 390.2 
L 245.176163 204.285437 
L 234.533782 204.285437 
z
" style="fill:#e5d7b3;"/>
   </g>
   <g id="patch_23">
    <path clip-path="url(#p1eb43159bb)" d="M 367.56355 390.2 
L 378.205931 390.2 
L 378.205931 32.2 
L 367.56355 32.2 
z
" style="fill:#e5d7b3;"/>
   </g>
   <g id="patch_24">
    <path clip-path="url(#p1eb43159bb)" d="M 500.593318 390.2 
L 511.235699 390.2 
L 511.235699 234.736596 
L 500.593318 234.736596 
z
" style="fill:#e5d7b3;"/>
   </g>
   <g id="patch_25">
    <path clip-path="url(#p1eb43159bb)" d="M 633.623085 390.2 
L 644.265467 390.2 
L 644.265467 305.481797 
L 633.623085 305.481797 
z
" style="fill:#e5d7b3;"/>
   </g>
   <g id="patch_26">
    <path clip-path="url(#p1eb43159bb)" d="M 766.652853 390.2 
L 777.295235 390.2 
L 777.295235 327.359574 
L 766.652853 327.359574 
z
" style="fill:#e5d7b3;"/>
   </g>
   <g id="patch_27">
    <path clip-path="url(#p1eb43159bb)" d="M 112.146396 390.2 
L 122.788777 390.2 
L 122.788777 185.262632 
L 112.146396 185.262632 
z
" style="fill:#f3eee1;"/>
   </g>
   <g id="patch_28">
    <path clip-path="url(#p1eb43159bb)" d="M 245.176163 390.2 
L 255.818545 390.2 
L 255.818545 187.993475 
L 245.176163 187.993475 
z
" style="fill:#f3eee1;"/>
   </g>
   <g id="patch_29">
    <path clip-path="url(#p1eb43159bb)" d="M 378.205931 390.2 
L 388.848313 390.2 
L 388.848313 104.104681 
L 378.205931 104.104681 
z
" style="fill:#f3eee1;"/>
   </g>
   <g id="patch_30">
    <path clip-path="url(#p1eb43159bb)" d="M 511.235699 390.2 
L 521.878081 390.2 
L 521.878081 244.791064 
L 511.235699 244.791064 
z
" style="fill:#f3eee1;"/>
   </g>
   <g id="patch_31">
    <path clip-path="url(#p1eb43159bb)" d="M 644.265467 390.2 
L 654.907848 390.2 
L 654.907848 295.613522 
L 644.265467 295.613522 
z
" style="fill:#f3eee1;"/>
   </g>
   <g id="patch_32">
    <path clip-path="url(#p1eb43159bb)" d="M 777.295235 390.2 
L 787.937616 390.2 
L 787.937616 273.456454 
L 777.295235 273.456454 
z
" style="fill:#f3eee1;"/>
   </g>
   <g id="patch_33">
    <path clip-path="url(#p1eb43159bb)" d="M 122.788777 390.2 
L 133.431159 390.2 
L 133.431159 209.405768 
L 122.788777 209.405768 
z
" style="fill:#e2eeec;"/>
   </g>
   <g id="patch_34">
    <path clip-path="url(#p1eb43159bb)" d="M 255.818545 390.2 
L 266.460926 390.2 
L 266.460926 224.859858 
L 255.818545 224.859858 
z
" style="fill:#e2eeec;"/>
   </g>
   <g id="patch_35">
    <path clip-path="url(#p1eb43159bb)" d="M 388.848313 390.2 
L 399.490694 390.2 
L 399.490694 103.495319 
L 388.848313 103.495319 
z
" style="fill:#e2eeec;"/>
   </g>
   <g id="patch_36">
    <path clip-path="url(#p1eb43159bb)" d="M 521.878081 390.2 
L 532.520462 390.2 
L 532.520462 256.216596 
L 521.878081 256.216596 
z
" style="fill:#e2eeec;"/>
   </g>
   <g id="patch_37">
    <path clip-path="url(#p1eb43159bb)" d="M 654.907848 390.2 
L 665.55023 390.2 
L 665.55023 356.312719 
L 654.907848 356.312719 
z
" style="fill:#e2eeec;"/>
   </g>
   <g id="patch_38">
    <path clip-path="url(#p1eb43159bb)" d="M 787.937616 390.2 
L 798.579998 390.2 
L 798.579998 352.775035 
L 787.937616 352.775035 
z
" style="fill:#e2eeec;"/>
   </g>
   <g id="patch_39">
    <path clip-path="url(#p1eb43159bb)" d="M 133.431159 390.2 
L 144.07354 390.2 
L 144.07354 246.023893 
L 133.431159 246.023893 
z
" style="fill:#b4dad4;"/>
   </g>
   <g id="patch_40">
    <path clip-path="url(#p1eb43159bb)" d="M 266.460926 390.2 
L 277.103308 390.2 
L 277.103308 148.985863 
L 266.460926 148.985863 
z
" style="fill:#b4dad4;"/>
   </g>
   <g id="patch_41">
    <path clip-path="url(#p1eb43159bb)" d="M 399.490694 390.2 
L 410.133076 390.2 
L 410.133076 34.637447 
L 399.490694 34.637447 
z
" style="fill:#b4dad4;"/>
   </g>
   <g id="patch_42">
    <path clip-path="url(#p1eb43159bb)" d="M 532.520462 390.2 
L 543.162843 390.2 
L 543.162843 299.938298 
L 532.520462 299.938298 
z
" style="fill:#b4dad4;"/>
   </g>
   <g id="patch_43">
    <path clip-path="url(#p1eb43159bb)" d="M 665.55023 390.2 
L 676.192611 390.2 
L 676.192611 350.913097 
L 665.55023 350.913097 
z
" style="fill:#b4dad4;"/>
   </g>
   <g id="patch_44">
    <path clip-path="url(#p1eb43159bb)" d="M 798.579998 390.2 
L 809.222379 390.2 
L 809.222379 356.685106 
L 798.579998 356.685106 
z
" style="fill:#b4dad4;"/>
   </g>
   <g id="patch_45">
    <path clip-path="url(#p1eb43159bb)" d="M 144.07354 390.2 
L 154.715921 390.2 
L 154.715921 218.218944 
L 144.07354 218.218944 
z
" style="fill:#74b3ab;"/>
   </g>
   <g id="patch_46">
    <path clip-path="url(#p1eb43159bb)" d="M 277.103308 390.2 
L 287.745689 390.2 
L 287.745689 102.251206 
L 277.103308 102.251206 
z
" style="fill:#74b3ab;"/>
   </g>
   <g id="patch_47">
    <path clip-path="url(#p1eb43159bb)" d="M 410.133076 390.2 
L 420.775457 390.2 
L 420.775457 122.233191 
L 410.133076 122.233191 
z
" style="fill:#74b3ab;"/>
   </g>
   <g id="patch_48">
    <path clip-path="url(#p1eb43159bb)" d="M 543.162843 390.2 
L 553.805225 390.2 
L 553.805225 340.00383 
L 543.162843 340.00383 
z
" style="fill:#74b3ab;"/>
   </g>
   <g id="patch_49">
    <path clip-path="url(#p1eb43159bb)" d="M 676.192611 390.2 
L 686.834993 390.2 
L 686.834993 363.015697 
L 676.192611 363.015697 
z
" style="fill:#74b3ab;"/>
   </g>
   <g id="patch_50">
    <path clip-path="url(#p1eb43159bb)" d="M 809.222379 390.2 
L 819.86476 390.2 
L 819.86476 332.386809 
L 809.222379 332.386809 
z
" style="fill:#74b3ab;"/>
   </g>
   <g id="patch_51">
    <path clip-path="url(#p1eb43159bb)" d="M 154.715921 390.2 
L 165.358303 390.2 
L 165.358303 207.047313 
L 154.715921 207.047313 
z
" style="fill:#37817b;"/>
   </g>
   <g id="patch_52">
    <path clip-path="url(#p1eb43159bb)" d="M 287.745689 390.2 
L 298.388071 390.2 
L 298.388071 157.178392 
L 287.745689 157.178392 
z
" style="fill:#37817b;"/>
   </g>
   <g id="patch_53">
    <path clip-path="url(#p1eb43159bb)" d="M 420.775457 390.2 
L 431.417838 390.2 
L 431.417838 101.514894 
L 420.775457 101.514894 
z
" style="fill:#37817b;"/>
   </g>
   <g id="patch_54">
    <path clip-path="url(#p1eb43159bb)" d="M 553.805225 390.2 
L 564.447606 390.2 
L 564.447606 266.118723 
L 553.805225 266.118723 
z
" style="fill:#37817b;"/>
   </g>
   <g id="patch_55">
    <path clip-path="url(#p1eb43159bb)" d="M 686.834993 390.2 
L 697.477374 390.2 
L 697.477374 363.574279 
L 686.834993 363.574279 
z
" style="fill:#37817b;"/>
   </g>
   <g id="patch_56">
    <path clip-path="url(#p1eb43159bb)" d="M 819.86476 390.2 
L 830.507142 390.2 
L 830.507142 310.602128 
L 819.86476 310.602128 
z
" style="fill:#37817b;"/>
   </g>
   <g id="patch_57">
    <path clip-path="url(#p1eb43159bb)" d="M 165.358303 390.2 
L 176.000684 390.2 
L 176.000684 248.568542 
L 165.358303 248.568542 
z
" style="fill:#0d564f;"/>
   </g>
   <g id="patch_58">
    <path clip-path="url(#p1eb43159bb)" d="M 298.388071 390.2 
L 309.030452 390.2 
L 309.030452 247.575508 
L 298.388071 247.575508 
z
" style="fill:#0d564f;"/>
   </g>
   <g id="patch_59">
    <path clip-path="url(#p1eb43159bb)" d="M 431.417838 390.2 
L 442.06022 390.2 
L 442.06022 62.058723 
L 431.417838 62.058723 
z
" style="fill:#0d564f;"/>
   </g>
   <g id="patch_60">
    <path clip-path="url(#p1eb43159bb)" d="M 564.447606 390.2 
L 575.089988 390.2 
L 575.089988 280.514894 
L 564.447606 280.514894 
z
" style="fill:#0d564f;"/>
   </g>
   <g id="patch_61">
    <path clip-path="url(#p1eb43159bb)" d="M 697.477374 390.2 
L 708.119755 390.2 
L 708.119755 343.279149 
L 697.477374 343.279149 
z
" style="fill:#0d564f;"/>
   </g>
   <g id="patch_62">
    <path clip-path="url(#p1eb43159bb)" d="M 830.507142 390.2 
L 841.149523 390.2 
L 841.149523 357.243688 
L 830.507142 357.243688 
z
" style="fill:#0d564f;"/>
   </g>
   <g id="matplotlib.axis_1">
    <g id="xtick_1">
     <g id="line2d_1">
      <defs>
       <path d="M 0 0 
L 0 3.5 
" id="m68cd1325a8" style="stroke:#000000;stroke-width:0.8;"/>
      </defs>
      <g>
       <use style="stroke:#000000;stroke-width:0.8;" x="122.788777" xlink:href="#m68cd1325a8" y="390.2"/>
      </g>
     </g>
     <g id="text_1">
      <!-- Edinburgh -->
      <defs>
       <path d="M 9.8125 72.90625 
L 55.90625 72.90625 
L 55.90625 64.59375 
L 19.671875 64.59375 
L 19.671875 43.015625 
L 54.390625 43.015625 
L 54.390625 34.71875 
L 19.671875 34.71875 
L 19.671875 8.296875 
L 56.78125 8.296875 
L 56.78125 0 
L 9.8125 0 
z
" id="DejaVuSans-45"/>
       <path d="M 45.40625 46.390625 
L 45.40625 75.984375 
L 54.390625 75.984375 
L 54.390625 0 
L 45.40625 0 
L 45.40625 8.203125 
Q 42.578125 3.328125 38.25 0.953125 
Q 33.9375 -1.421875 27.875 -1.421875 
Q 17.96875 -1.421875 11.734375 6.484375 
Q 5.515625 14.40625 5.515625 27.296875 
Q 5.515625 40.1875 11.734375 48.09375 
Q 17.96875 56 27.875 56 
Q 33.9375 56 38.25 53.625 
Q 42.578125 51.265625 45.40625 46.390625 
z
M 14.796875 27.296875 
Q 14.796875 17.390625 18.875 11.75 
Q 22.953125 6.109375 30.078125 6.109375 
Q 37.203125 6.109375 41.296875 11.75 
Q 45.40625 17.390625 45.40625 27.296875 
Q 45.40625 37.203125 41.296875 42.84375 
Q 37.203125 48.484375 30.078125 48.484375 
Q 22.953125 48.484375 18.875 42.84375 
Q 14.796875 37.203125 14.796875 27.296875 
z
" id="DejaVuSans-64"/>
       <path d="M 9.421875 54.6875 
L 18.40625 54.6875 
L 18.40625 0 
L 9.421875 0 
z
M 9.421875 75.984375 
L 18.40625 75.984375 
L 18.40625 64.59375 
L 9.421875 64.59375 
z
" id="DejaVuSans-69"/>
       <path d="M 54.890625 33.015625 
L 54.890625 0 
L 45.90625 0 
L 45.90625 32.71875 
Q 45.90625 40.484375 42.875 44.328125 
Q 39.84375 48.1875 33.796875 48.1875 
Q 26.515625 48.1875 22.3125 43.546875 
Q 18.109375 38.921875 18.109375 30.90625 
L 18.109375 0 
L 9.078125 0 
L 9.078125 54.6875 
L 18.109375 54.6875 
L 18.109375 46.1875 
Q 21.34375 51.125 25.703125 53.5625 
Q 30.078125 56 35.796875 56 
Q 45.21875 56 50.046875 50.171875 
Q 54.890625 44.34375 54.890625 33.015625 
z
" id="DejaVuSans-6e"/>
       <path d="M 48.6875 27.296875 
Q 48.6875 37.203125 44.609375 42.84375 
Q 40.53125 48.484375 33.40625 48.484375 
Q 26.265625 48.484375 22.1875 42.84375 
Q 18.109375 37.203125 18.109375 27.296875 
Q 18.109375 17.390625 22.1875 11.75 
Q 26.265625 6.109375 33.40625 6.109375 
Q 40.53125 6.109375 44.609375 11.75 
Q 48.6875 17.390625 48.6875 27.296875 
z
M 18.109375 46.390625 
Q 20.953125 51.265625 25.265625 53.625 
Q 29.59375 56 35.59375 56 
Q 45.5625 56 51.78125 48.09375 
Q 58.015625 40.1875 58.015625 27.296875 
Q 58.015625 14.40625 51.78125 6.484375 
Q 45.5625 -1.421875 35.59375 -1.421875 
Q 29.59375 -1.421875 25.265625 0.953125 
Q 20.953125 3.328125 18.109375 8.203125 
L 18.109375 0 
L 9.078125 0 
L 9.078125 75.984375 
L 18.109375 75.984375 
z
" id="DejaVuSans-62"/>
       <path d="M 8.5 21.578125 
L 8.5 54.6875 
L 17.484375 54.6875 
L 17.484375 21.921875 
Q 17.484375 14.15625 20.5 10.265625 
Q 23.53125 6.390625 29.59375 6.390625 
Q 36.859375 6.390625 41.078125 11.03125 
Q 45.3125 15.671875 45.3125 23.6875 
L 45.3125 54.6875 
L 54.296875 54.6875 
L 54.296875 0 
L 45.3125 0 
L 45.3125 8.40625 
Q 42.046875 3.421875 37.71875 1 
Q 33.40625 -1.421875 27.6875 -1.421875 
Q 18.265625 -1.421875 13.375 4.4375 
Q 8.5 10.296875 8.5 21.578125 
z
M 31.109375 56 
z
" id="DejaVuSans-75"/>
       <path d="M 41.109375 46.296875 
Q 39.59375 47.171875 37.8125 47.578125 
Q 36.03125 48 33.890625 48 
Q 26.265625 48 22.1875 43.046875 
Q 18.109375 38.09375 18.109375 28.8125 
L 18.109375 0 
L 9.078125 0 
L 9.078125 54.6875 
L 18.109375 54.6875 
L 18.109375 46.1875 
Q 20.953125 51.171875 25.484375 53.578125 
Q 30.03125 56 36.53125 56 
Q 37.453125 56 38.578125 55.875 
Q 39.703125 55.765625 41.0625 55.515625 
z
" id="DejaVuSans-72"/>
       <path d="M 45.40625 27.984375 
Q 45.40625 37.75 41.375 43.109375 
Q 37.359375 48.484375 30.078125 48.484375 
Q 22.859375 48.484375 18.828125 43.109375 
Q 14.796875 37.75 14.796875 27.984375 
Q 14.796875 18.265625 18.828125 12.890625 
Q 22.859375 7.515625 30.078125 7.515625 
Q 37.359375 7.515625 41.375 12.890625 
Q 45.40625 18.265625 45.40625 27.984375 
z
M 54.390625 6.78125 
Q 54.390625 -7.171875 48.1875 -13.984375 
Q 42 -20.796875 29.203125 -20.796875 
Q 24.46875 -20.796875 20.265625 -20.09375 
Q 16.0625 -19.390625 12.109375 -17.921875 
L 12.109375 -9.1875 
Q 16.0625 -11.328125 19.921875 -12.34375 
Q 23.78125 -13.375 27.78125 -13.375 
Q 36.625 -13.375 41.015625 -8.765625 
Q 45.40625 -4.15625 45.40625 5.171875 
L 45.40625 9.625 
Q 42.625 4.78125 38.28125 2.390625 
Q 33.9375 0 27.875 0 
Q 17.828125 0 11.671875 7.65625 
Q 5.515625 15.328125 5.515625 27.984375 
Q 5.515625 40.671875 11.671875 48.328125 
Q 17.828125 56 27.875 56 
Q 33.9375 56 38.28125 53.609375 
Q 42.625 51.21875 45.40625 46.390625 
L 45.40625 54.6875 
L 54.390625 54.6875 
z
" id="DejaVuSans-67"/>
       <path d="M 54.890625 33.015625 
L 54.890625 0 
L 45.90625 0 
L 45.90625 32.71875 
Q 45.90625 40.484375 42.875 44.328125 
Q 39.84375 48.1875 33.796875 48.1875 
Q 26.515625 48.1875 22.3125 43.546875 
Q 18.109375 38.921875 18.109375 30.90625 
L 18.109375 0 
L 9.078125 0 
L 9.078125 75.984375 
L 18.109375 75.984375 
L 18.109375 46.1875 
Q 21.34375 51.125 25.703125 53.5625 
Q 30.078125 56 35.796875 56 
Q 45.21875 56 50.046875 50.171875 
Q 54.890625 44.34375 54.890625 33.015625 
z
" id="DejaVuSans-68"/>
      </defs>
      <g transform="translate(97.156746 404.798437)scale(0.1 -0.1)">
       <use xlink:href="#DejaVuSans-45"/>
       <use x="63.183594" xlink:href="#DejaVuSans-64"/>
       <use x="126.660156" xlink:href="#DejaVuSans-69"/>
       <use x="154.443359" xlink:href="#DejaVuSans-6e"/>
       <use x="217.822266" xlink:href="#DejaVuSans-62"/>
       <use x="281.298828" xlink:href="#DejaVuSans-75"/>
       <use x="344.677734" xlink:href="#DejaVuSans-72"/>
       <use x="385.775391" xlink:href="#DejaVuSans-67"/>
       <use x="449.251953" xlink:href="#DejaVuSans-68"/>
      </g>
     </g>
    </g>
    <g id="xtick_2">
     <g id="line2d_2">
      <g>
       <use style="stroke:#000000;stroke-width:0.8;" x="255.818545" xlink:href="#m68cd1325a8" y="390.2"/>
      </g>
     </g>
     <g id="text_2">
      <!-- Stirling -->
      <defs>
       <path d="M 53.515625 70.515625 
L 53.515625 60.890625 
Q 47.90625 63.578125 42.921875 64.890625 
Q 37.9375 66.21875 33.296875 66.21875 
Q 25.25 66.21875 20.875 63.09375 
Q 16.5 59.96875 16.5 54.203125 
Q 16.5 49.359375 19.40625 46.890625 
Q 22.3125 44.4375 30.421875 42.921875 
L 36.375 41.703125 
Q 47.40625 39.59375 52.65625 34.296875 
Q 57.90625 29 57.90625 20.125 
Q 57.90625 9.515625 50.796875 4.046875 
Q 43.703125 -1.421875 29.984375 -1.421875 
Q 24.8125 -1.421875 18.96875 -0.25 
Q 13.140625 0.921875 6.890625 3.21875 
L 6.890625 13.375 
Q 12.890625 10.015625 18.65625 8.296875 
Q 24.421875 6.59375 29.984375 6.59375 
Q 38.421875 6.59375 43.015625 9.90625 
Q 47.609375 13.234375 47.609375 19.390625 
Q 47.609375 24.75 44.3125 27.78125 
Q 41.015625 30.8125 33.5 32.328125 
L 27.484375 33.5 
Q 16.453125 35.6875 11.515625 40.375 
Q 6.59375 45.0625 6.59375 53.421875 
Q 6.59375 63.09375 13.40625 68.65625 
Q 20.21875 74.21875 32.171875 74.21875 
Q 37.3125 74.21875 42.625 73.28125 
Q 47.953125 72.359375 53.515625 70.515625 
z
" id="DejaVuSans-53"/>
       <path d="M 18.3125 70.21875 
L 18.3125 54.6875 
L 36.8125 54.6875 
L 36.8125 47.703125 
L 18.3125 47.703125 
L 18.3125 18.015625 
Q 18.3125 11.328125 20.140625 9.421875 
Q 21.96875 7.515625 27.59375 7.515625 
L 36.8125 7.515625 
L 36.8125 0 
L 27.59375 0 
Q 17.1875 0 13.234375 3.875 
Q 9.28125 7.765625 9.28125 18.015625 
L 9.28125 47.703125 
L 2.6875 47.703125 
L 2.6875 54.6875 
L 9.28125 54.6875 
L 9.28125 70.21875 
z
" id="DejaVuSans-74"/>
       <path d="M 9.421875 75.984375 
L 18.40625 75.984375 
L 18.40625 0 
L 9.421875 0 
z
" id="DejaVuSans-6c"/>
      </defs>
      <g transform="translate(238.118545 404.798437)scale(0.1 -0.1)">
       <use xlink:href="#DejaVuSans-53"/>
       <use x="63.476562" xlink:href="#DejaVuSans-74"/>
       <use x="102.685547" xlink:href="#DejaVuSans-69"/>
       <use x="130.46875" xlink:href="#DejaVuSans-72"/>
       <use x="171.582031" xlink:href="#DejaVuSans-6c"/>
       <use x="199.365234" xlink:href="#DejaVuSans-69"/>
       <use x="227.148438" xlink:href="#DejaVuSans-6e"/>
       <use x="290.527344" xlink:href="#DejaVuSans-67"/>
      </g>
     </g>
    </g>
    <g id="xtick_3">
     <g id="line2d_3">
      <g>
       <use style="stroke:#000000;stroke-width:0.8;" x="388.848313" xlink:href="#m68cd1325a8" y="390.2"/>
      </g>
     </g>
     <g id="text_3">
      <!-- Ayr -->
      <defs>
       <path d="M 34.1875 63.1875 
L 20.796875 26.90625 
L 47.609375 26.90625 
z
M 28.609375 72.90625 
L 39.796875 72.90625 
L 67.578125 0 
L 57.328125 0 
L 50.6875 18.703125 
L 17.828125 18.703125 
L 11.1875 0 
L 0.78125 0 
z
" id="DejaVuSans-41"/>
       <path d="M 32.171875 -5.078125 
Q 28.375 -14.84375 24.75 -17.8125 
Q 21.140625 -20.796875 15.09375 -20.796875 
L 7.90625 -20.796875 
L 7.90625 -13.28125 
L 13.1875 -13.28125 
Q 16.890625 -13.28125 18.9375 -11.515625 
Q 21 -9.765625 23.484375 -3.21875 
L 25.09375 0.875 
L 2.984375 54.6875 
L 12.5 54.6875 
L 29.59375 11.921875 
L 46.6875 54.6875 
L 56.203125 54.6875 
z
" id="DejaVuSans-79"/>
      </defs>
      <g transform="translate(380.417844 404.798437)scale(0.1 -0.1)">
       <use xlink:href="#DejaVuSans-41"/>
       <use x="68.314453" xlink:href="#DejaVuSans-79"/>
       <use x="127.494141" xlink:href="#DejaVuSans-72"/>
      </g>
     </g>
    </g>
    <g id="xtick_4">
     <g id="line2d_4">
      <g>
       <use style="stroke:#000000;stroke-width:0.8;" x="521.878081" xlink:href="#m68cd1325a8" y="390.2"/>
      </g>
     </g>
     <g id="text_4">
      <!-- Dundee -->
      <defs>
       <path d="M 19.671875 64.796875 
L 19.671875 8.109375 
L 31.59375 8.109375 
Q 46.6875 8.109375 53.6875 14.9375 
Q 60.6875 21.78125 60.6875 36.53125 
Q 60.6875 51.171875 53.6875 57.984375 
Q 46.6875 64.796875 31.59375 64.796875 
z
M 9.8125 72.90625 
L 30.078125 72.90625 
Q 51.265625 72.90625 61.171875 64.09375 
Q 71.09375 55.28125 71.09375 36.53125 
Q 71.09375 17.671875 61.125 8.828125 
Q 51.171875 0 30.078125 0 
L 9.8125 0 
z
" id="DejaVuSans-44"/>
       <path d="M 56.203125 29.59375 
L 56.203125 25.203125 
L 14.890625 25.203125 
Q 15.484375 15.921875 20.484375 11.0625 
Q 25.484375 6.203125 34.421875 6.203125 
Q 39.59375 6.203125 44.453125 7.46875 
Q 49.3125 8.734375 54.109375 11.28125 
L 54.109375 2.78125 
Q 49.265625 0.734375 44.1875 -0.34375 
Q 39.109375 -1.421875 33.890625 -1.421875 
Q 20.796875 -1.421875 13.15625 6.1875 
Q 5.515625 13.8125 5.515625 26.8125 
Q 5.515625 40.234375 12.765625 48.109375 
Q 20.015625 56 32.328125 56 
Q 43.359375 56 49.78125 48.890625 
Q 56.203125 41.796875 56.203125 29.59375 
z
M 47.21875 32.234375 
Q 47.125 39.59375 43.09375 43.984375 
Q 39.0625 48.390625 32.421875 48.390625 
Q 24.90625 48.390625 20.390625 44.140625 
Q 15.875 39.890625 15.1875 32.171875 
z
" id="DejaVuSans-65"/>
      </defs>
      <g transform="translate(502.363237 404.798437)scale(0.1 -0.1)">
       <use xlink:href="#DejaVuSans-44"/>
       <use x="77.001953" xlink:href="#DejaVuSans-75"/>
       <use x="140.380859" xlink:href="#DejaVuSans-6e"/>
       <use x="203.759766" xlink:href="#DejaVuSans-64"/>
       <use x="267.236328" xlink:href="#DejaVuSans-65"/>
       <use x="328.759766" xlink:href="#DejaVuSans-65"/>
      </g>
     </g>
    </g>
    <g id="xtick_5">
     <g id="line2d_5">
      <g>
       <use style="stroke:#000000;stroke-width:0.8;" x="654.907848" xlink:href="#m68cd1325a8" y="390.2"/>
      </g>
     </g>
     <g id="text_5">
      <!-- Aberdeen -->
      <g transform="translate(630.685973 404.798437)scale(0.1 -0.1)">
       <use xlink:href="#DejaVuSans-41"/>
       <use x="68.408203" xlink:href="#DejaVuSans-62"/>
       <use x="131.884766" xlink:href="#DejaVuSans-65"/>
       <use x="193.408203" xlink:href="#DejaVuSans-72"/>
       <use x="234.505859" xlink:href="#DejaVuSans-64"/>
       <use x="297.982422" xlink:href="#DejaVuSans-65"/>
       <use x="359.505859" xlink:href="#DejaVuSans-65"/>
       <use x="421.029297" xlink:href="#DejaVuSans-6e"/>
      </g>
     </g>
    </g>
    <g id="xtick_6">
     <g id="line2d_6">
      <g>
       <use style="stroke:#000000;stroke-width:0.8;" x="787.937616" xlink:href="#m68cd1325a8" y="390.2"/>
      </g>
     </g>
     <g id="text_6">
      <!-- Glasgow -->
      <defs>
       <path d="M 59.515625 10.40625 
L 59.515625 29.984375 
L 43.40625 29.984375 
L 43.40625 38.09375 
L 69.28125 38.09375 
L 69.28125 6.78125 
Q 63.578125 2.734375 56.6875 0.65625 
Q 49.8125 -1.421875 42 -1.421875 
Q 24.90625 -1.421875 15.25 8.5625 
Q 5.609375 18.5625 5.609375 36.375 
Q 5.609375 54.25 15.25 64.234375 
Q 24.90625 74.21875 42 74.21875 
Q 49.125 74.21875 55.546875 72.453125 
Q 61.96875 70.703125 67.390625 67.28125 
L 67.390625 56.78125 
Q 61.921875 61.421875 55.765625 63.765625 
Q 49.609375 66.109375 42.828125 66.109375 
Q 29.4375 66.109375 22.71875 58.640625 
Q 16.015625 51.171875 16.015625 36.375 
Q 16.015625 21.625 22.71875 14.15625 
Q 29.4375 6.6875 42.828125 6.6875 
Q 48.046875 6.6875 52.140625 7.59375 
Q 56.25 8.5 59.515625 10.40625 
z
" id="DejaVuSans-47"/>
       <path d="M 34.28125 27.484375 
Q 23.390625 27.484375 19.1875 25 
Q 14.984375 22.515625 14.984375 16.5 
Q 14.984375 11.71875 18.140625 8.90625 
Q 21.296875 6.109375 26.703125 6.109375 
Q 34.1875 6.109375 38.703125 11.40625 
Q 43.21875 16.703125 43.21875 25.484375 
L 43.21875 27.484375 
z
M 52.203125 31.203125 
L 52.203125 0 
L 43.21875 0 
L 43.21875 8.296875 
Q 40.140625 3.328125 35.546875 0.953125 
Q 30.953125 -1.421875 24.3125 -1.421875 
Q 15.921875 -1.421875 10.953125 3.296875 
Q 6 8.015625 6 15.921875 
Q 6 25.140625 12.171875 29.828125 
Q 18.359375 34.515625 30.609375 34.515625 
L 43.21875 34.515625 
L 43.21875 35.40625 
Q 43.21875 41.609375 39.140625 45 
Q 35.0625 48.390625 27.6875 48.390625 
Q 23 48.390625 18.546875 47.265625 
Q 14.109375 46.140625 10.015625 43.890625 
L 10.015625 52.203125 
Q 14.9375 54.109375 19.578125 55.046875 
Q 24.21875 56 28.609375 56 
Q 40.484375 56 46.34375 49.84375 
Q 52.203125 43.703125 52.203125 31.203125 
z
" id="DejaVuSans-61"/>
       <path d="M 44.28125 53.078125 
L 44.28125 44.578125 
Q 40.484375 46.53125 36.375 47.5 
Q 32.28125 48.484375 27.875 48.484375 
Q 21.1875 48.484375 17.84375 46.4375 
Q 14.5 44.390625 14.5 40.28125 
Q 14.5 37.15625 16.890625 35.375 
Q 19.28125 33.59375 26.515625 31.984375 
L 29.59375 31.296875 
Q 39.15625 29.25 43.1875 25.515625 
Q 47.21875 21.78125 47.21875 15.09375 
Q 47.21875 7.46875 41.1875 3.015625 
Q 35.15625 -1.421875 24.609375 -1.421875 
Q 20.21875 -1.421875 15.453125 -0.5625 
Q 10.6875 0.296875 5.421875 2 
L 5.421875 11.28125 
Q 10.40625 8.6875 15.234375 7.390625 
Q 20.0625 6.109375 24.8125 6.109375 
Q 31.15625 6.109375 34.5625 8.28125 
Q 37.984375 10.453125 37.984375 14.40625 
Q 37.984375 18.0625 35.515625 20.015625 
Q 33.0625 21.96875 24.703125 23.78125 
L 21.578125 24.515625 
Q 13.234375 26.265625 9.515625 29.90625 
Q 5.8125 33.546875 5.8125 39.890625 
Q 5.8125 47.609375 11.28125 51.796875 
Q 16.75 56 26.8125 56 
Q 31.78125 56 36.171875 55.265625 
Q 40.578125 54.546875 44.28125 53.078125 
z
" id="DejaVuSans-73"/>
       <path d="M 30.609375 48.390625 
Q 23.390625 48.390625 19.1875 42.75 
Q 14.984375 37.109375 14.984375 27.296875 
Q 14.984375 17.484375 19.15625 11.84375 
Q 23.34375 6.203125 30.609375 6.203125 
Q 37.796875 6.203125 41.984375 11.859375 
Q 46.1875 17.53125 46.1875 27.296875 
Q 46.1875 37.015625 41.984375 42.703125 
Q 37.796875 48.390625 30.609375 48.390625 
z
M 30.609375 56 
Q 42.328125 56 49.015625 48.375 
Q 55.71875 40.765625 55.71875 27.296875 
Q 55.71875 13.875 49.015625 6.21875 
Q 42.328125 -1.421875 30.609375 -1.421875 
Q 18.84375 -1.421875 12.171875 6.21875 
Q 5.515625 13.875 5.515625 27.296875 
Q 5.515625 40.765625 12.171875 48.375 
Q 18.84375 56 30.609375 56 
z
" id="DejaVuSans-6f"/>
       <path d="M 4.203125 54.6875 
L 13.1875 54.6875 
L 24.421875 12.015625 
L 35.59375 54.6875 
L 46.1875 54.6875 
L 57.421875 12.015625 
L 68.609375 54.6875 
L 77.59375 54.6875 
L 63.28125 0 
L 52.6875 0 
L 40.921875 44.828125 
L 29.109375 0 
L 18.5 0 
z
" id="DejaVuSans-77"/>
      </defs>
      <g transform="translate(766.682929 404.798437)scale(0.1 -0.1)">
       <use xlink:href="#DejaVuSans-47"/>
       <use x="77.490234" xlink:href="#DejaVuSans-6c"/>
       <use x="105.273438" xlink:href="#DejaVuSans-61"/>
       <use x="166.552734" xlink:href="#DejaVuSans-73"/>
       <use x="218.652344" xlink:href="#DejaVuSans-67"/>
       <use x="282.128906" xlink:href="#DejaVuSans-6f"/>
       <use x="343.310547" xlink:href="#DejaVuSans-77"/>
      </g>
     </g>
    </g>
    <g id="text_7">
     <!-- City -->
     <defs>
      <path d="M 64.40625 67.28125 
L 64.40625 56.890625 
Q 59.421875 61.53125 53.78125 63.8125 
Q 48.140625 66.109375 41.796875 66.109375 
Q 29.296875 66.109375 22.65625 58.46875 
Q 16.015625 50.828125 16.015625 36.375 
Q 16.015625 21.96875 22.65625 14.328125 
Q 29.296875 6.6875 41.796875 6.6875 
Q 48.140625 6.6875 53.78125 8.984375 
Q 59.421875 11.28125 64.40625 15.921875 
L 64.40625 5.609375 
Q 59.234375 2.09375 53.4375 0.328125 
Q 47.65625 -1.421875 41.21875 -1.421875 
Q 24.65625 -1.421875 15.125 8.703125 
Q 5.609375 18.84375 5.609375 36.375 
Q 5.609375 53.953125 15.125 64.078125 
Q 24.65625 74.21875 41.21875 74.21875 
Q 47.75 74.21875 53.53125 72.484375 
Q 59.328125 70.75 64.40625 67.28125 
z
" id="DejaVuSans-43"/>
     </defs>
     <g transform="translate(445.563197 418.476562)scale(0.1 -0.1)">
      <use xlink:href="#DejaVuSans-43"/>
      <use x="69.824219" xlink:href="#DejaVuSans-69"/>
      <use x="97.607422" xlink:href="#DejaVuSans-74"/>
      <use x="136.816406" xlink:href="#DejaVuSans-79"/>
     </g>
    </g>
   </g>
   <g id="matplotlib.axis_2">
    <g id="ytick_1">
     <g id="line2d_7">
      <defs>
       <path d="M 0 0 
L -3.5 0 
" id="m3588a2f2d3" style="stroke:#000000;stroke-width:0.8;"/>
      </defs>
      <g>
       <use style="stroke:#000000;stroke-width:0.8;" x="56.273893" xlink:href="#m3588a2f2d3" y="390.2"/>
      </g>
     </g>
     <g id="text_8">
      <!-- 0 -->
      <defs>
       <path d="M 31.78125 66.40625 
Q 24.171875 66.40625 20.328125 58.90625 
Q 16.5 51.421875 16.5 36.375 
Q 16.5 21.390625 20.328125 13.890625 
Q 24.171875 6.390625 31.78125 6.390625 
Q 39.453125 6.390625 43.28125 13.890625 
Q 47.125 21.390625 47.125 36.375 
Q 47.125 51.421875 43.28125 58.90625 
Q 39.453125 66.40625 31.78125 66.40625 
z
M 31.78125 74.21875 
Q 44.046875 74.21875 50.515625 64.515625 
Q 56.984375 54.828125 56.984375 36.375 
Q 56.984375 17.96875 50.515625 8.265625 
Q 44.046875 -1.421875 31.78125 -1.421875 
Q 19.53125 -1.421875 13.0625 8.265625 
Q 6.59375 17.96875 6.59375 36.375 
Q 6.59375 54.828125 13.0625 64.515625 
Q 19.53125 74.21875 31.78125 74.21875 
z
" id="DejaVuSans-30"/>
      </defs>
      <g transform="translate(42.911393 393.999219)scale(0.1 -0.1)">
       <use xlink:href="#DejaVuSans-30"/>
      </g>
     </g>
    </g>
    <g id="ytick_2">
     <g id="line2d_8">
      <g>
       <use style="stroke:#000000;stroke-width:0.8;" x="56.273893" xlink:href="#m3588a2f2d3" y="348.306383"/>
      </g>
     </g>
     <g id="text_9">
      <!-- 25 -->
      <defs>
       <path d="M 19.1875 8.296875 
L 53.609375 8.296875 
L 53.609375 0 
L 7.328125 0 
L 7.328125 8.296875 
Q 12.9375 14.109375 22.625 23.890625 
Q 32.328125 33.6875 34.8125 36.53125 
Q 39.546875 41.84375 41.421875 45.53125 
Q 43.3125 49.21875 43.3125 52.78125 
Q 43.3125 58.59375 39.234375 62.25 
Q 35.15625 65.921875 28.609375 65.921875 
Q 23.96875 65.921875 18.8125 64.3125 
Q 13.671875 62.703125 7.8125 59.421875 
L 7.8125 69.390625 
Q 13.765625 71.78125 18.9375 73 
Q 24.125 74.21875 28.421875 74.21875 
Q 39.75 74.21875 46.484375 68.546875 
Q 53.21875 62.890625 53.21875 53.421875 
Q 53.21875 48.921875 51.53125 44.890625 
Q 49.859375 40.875 45.40625 35.40625 
Q 44.1875 33.984375 37.640625 27.21875 
Q 31.109375 20.453125 19.1875 8.296875 
z
" id="DejaVuSans-32"/>
       <path d="M 10.796875 72.90625 
L 49.515625 72.90625 
L 49.515625 64.59375 
L 19.828125 64.59375 
L 19.828125 46.734375 
Q 21.96875 47.46875 24.109375 47.828125 
Q 26.265625 48.1875 28.421875 48.1875 
Q 40.625 48.1875 47.75 41.5 
Q 54.890625 34.8125 54.890625 23.390625 
Q 54.890625 11.625 47.5625 5.09375 
Q 40.234375 -1.421875 26.90625 -1.421875 
Q 22.3125 -1.421875 17.546875 -0.640625 
Q 12.796875 0.140625 7.71875 1.703125 
L 7.71875 11.625 
Q 12.109375 9.234375 16.796875 8.0625 
Q 21.484375 6.890625 26.703125 6.890625 
Q 35.15625 6.890625 40.078125 11.328125 
Q 45.015625 15.765625 45.015625 23.390625 
Q 45.015625 31 40.078125 35.4375 
Q 35.15625 39.890625 26.703125 39.890625 
Q 22.75 39.890625 18.8125 39.015625 
Q 14.890625 38.140625 10.796875 36.28125 
z
" id="DejaVuSans-35"/>
      </defs>
      <g transform="translate(36.548893 352.105602)scale(0.1 -0.1)">
       <use xlink:href="#DejaVuSans-32"/>
       <use x="63.623047" xlink:href="#DejaVuSans-35"/>
      </g>
     </g>
    </g>
    <g id="ytick_3">
     <g id="line2d_9">
      <g>
       <use style="stroke:#000000;stroke-width:0.8;" x="56.273893" xlink:href="#m3588a2f2d3" y="306.412766"/>
      </g>
     </g>
     <g id="text_10">
      <!-- 50 -->
      <g transform="translate(36.548893 310.211985)scale(0.1 -0.1)">
       <use xlink:href="#DejaVuSans-35"/>
       <use x="63.623047" xlink:href="#DejaVuSans-30"/>
      </g>
     </g>
    </g>
    <g id="ytick_4">
     <g id="line2d_10">
      <g>
       <use style="stroke:#000000;stroke-width:0.8;" x="56.273893" xlink:href="#m3588a2f2d3" y="264.519149"/>
      </g>
     </g>
     <g id="text_11">
      <!-- 75 -->
      <defs>
       <path d="M 8.203125 72.90625 
L 55.078125 72.90625 
L 55.078125 68.703125 
L 28.609375 0 
L 18.3125 0 
L 43.21875 64.59375 
L 8.203125 64.59375 
z
" id="DejaVuSans-37"/>
      </defs>
      <g transform="translate(36.548893 268.318368)scale(0.1 -0.1)">
       <use xlink:href="#DejaVuSans-37"/>
       <use x="63.623047" xlink:href="#DejaVuSans-35"/>
      </g>
     </g>
    </g>
    <g id="ytick_5">
     <g id="line2d_11">
      <g>
       <use style="stroke:#000000;stroke-width:0.8;" x="56.273893" xlink:href="#m3588a2f2d3" y="222.625532"/>
      </g>
     </g>
     <g id="text_12">
      <!-- 100 -->
      <defs>
       <path d="M 12.40625 8.296875 
L 28.515625 8.296875 
L 28.515625 63.921875 
L 10.984375 60.40625 
L 10.984375 69.390625 
L 28.421875 72.90625 
L 38.28125 72.90625 
L 38.28125 8.296875 
L 54.390625 8.296875 
L 54.390625 0 
L 12.40625 0 
z
" id="DejaVuSans-31"/>
      </defs>
      <g transform="translate(30.186393 226.424751)scale(0.1 -0.1)">
       <use xlink:href="#DejaVuSans-31"/>
       <use x="63.623047" xlink:href="#DejaVuSans-30"/>
       <use x="127.246094" xlink:href="#DejaVuSans-30"/>
      </g>
     </g>
    </g>
    <g id="ytick_6">
     <g id="line2d_12">
      <g>
       <use style="stroke:#000000;stroke-width:0.8;" x="56.273893" xlink:href="#m3588a2f2d3" y="180.731915"/>
      </g>
     </g>
     <g id="text_13">
      <!-- 125 -->
      <g transform="translate(30.186393 184.531134)scale(0.1 -0.1)">
       <use xlink:href="#DejaVuSans-31"/>
       <use x="63.623047" xlink:href="#DejaVuSans-32"/>
       <use x="127.246094" xlink:href="#DejaVuSans-35"/>
      </g>
     </g>
    </g>
    <g id="ytick_7">
     <g id="line2d_13">
      <g>
       <use style="stroke:#000000;stroke-width:0.8;" x="56.273893" xlink:href="#m3588a2f2d3" y="138.838298"/>
      </g>
     </g>
     <g id="text_14">
      <!-- 150 -->
      <g transform="translate(30.186393 142.637517)scale(0.1 -0.1)">
       <use xlink:href="#DejaVuSans-31"/>
       <use x="63.623047" xlink:href="#DejaVuSans-35"/>
       <use x="127.246094" xlink:href="#DejaVuSans-30"/>
      </g>
     </g>
    </g>
    <g id="ytick_8">
     <g id="line2d_14">
      <g>
       <use style="stroke:#000000;stroke-width:0.8;" x="56.273893" xlink:href="#m3588a2f2d3" y="96.944681"/>
      </g>
     </g>
     <g id="text_15">
      <!-- 175 -->
      <g transform="translate(30.186393 100.7439)scale(0.1 -0.1)">
       <use xlink:href="#DejaVuSans-31"/>
       <use x="63.623047" xlink:href="#DejaVuSans-37"/>
       <use x="127.246094" xlink:href="#DejaVuSans-35"/>
      </g>
     </g>
    </g>
    <g id="ytick_9">
     <g id="line2d_15">
      <g>
       <use style="stroke:#000000;stroke-width:0.8;" x="56.273893" xlink:href="#m3588a2f2d3" y="55.051064"/>
      </g>
     </g>
     <g id="text_16">
      <!-- 200 -->
      <g transform="translate(30.186393 58.850283)scale(0.1 -0.1)">
       <use xlink:href="#DejaVuSans-32"/>
       <use x="63.623047" xlink:href="#DejaVuSans-30"/>
       <use x="127.246094" xlink:href="#DejaVuSans-30"/>
      </g>
     </g>
    </g>
    <g id="text_17">
     <!-- AverageUsageMonth -->
     <defs>
      <path d="M 2.984375 54.6875 
L 12.5 54.6875 
L 29.59375 8.796875 
L 46.6875 54.6875 
L 56.203125 54.6875 
L 35.6875 0 
L 23.484375 0 
z
" id="DejaVuSans-76"/>
      <path d="M 8.6875 72.90625 
L 18.609375 72.90625 
L 18.609375 28.609375 
Q 18.609375 16.890625 22.84375 11.734375 
Q 27.09375 6.59375 36.625 6.59375 
Q 46.09375 6.59375 50.34375 11.734375 
Q 54.59375 16.890625 54.59375 28.609375 
L 54.59375 72.90625 
L 64.5 72.90625 
L 64.5 27.390625 
Q 64.5 13.140625 57.4375 5.859375 
Q 50.390625 -1.421875 36.625 -1.421875 
Q 22.796875 -1.421875 15.734375 5.859375 
Q 8.6875 13.140625 8.6875 27.390625 
z
" id="DejaVuSans-55"/>
      <path d="M 9.8125 72.90625 
L 24.515625 72.90625 
L 43.109375 23.296875 
L 61.8125 72.90625 
L 76.515625 72.90625 
L 76.515625 0 
L 66.890625 0 
L 66.890625 64.015625 
L 48.09375 14.015625 
L 38.1875 14.015625 
L 19.390625 64.015625 
L 19.390625 0 
L 9.8125 0 
z
" id="DejaVuSans-4d"/>
     </defs>
     <g transform="translate(24.106706 254.322656)rotate(-90)scale(0.1 -0.1)">
      <use xlink:href="#DejaVuSans-41"/>
      <use x="68.330078" xlink:href="#DejaVuSans-76"/>
      <use x="127.509766" xlink:href="#DejaVuSans-65"/>
      <use x="189.033203" xlink:href="#DejaVuSans-72"/>
      <use x="230.146484" xlink:href="#DejaVuSans-61"/>
      <use x="291.425781" xlink:href="#DejaVuSans-67"/>
      <use x="354.902344" xlink:href="#DejaVuSans-65"/>
      <use x="416.425781" xlink:href="#DejaVuSans-55"/>
      <use x="489.619141" xlink:href="#DejaVuSans-73"/>
      <use x="541.71875" xlink:href="#DejaVuSans-61"/>
      <use x="602.998047" xlink:href="#DejaVuSans-67"/>
      <use x="666.474609" xlink:href="#DejaVuSans-65"/>
      <use x="727.998047" xlink:href="#DejaVuSans-4d"/>
      <use x="814.277344" xlink:href="#DejaVuSans-6f"/>
      <use x="875.458984" xlink:href="#DejaVuSans-6e"/>
      <use x="938.837891" xlink:href="#DejaVuSans-74"/>
      <use x="978.046875" xlink:href="#DejaVuSans-68"/>
     </g>
    </g>
   </g>
   <g id="line2d_16">
    <path clip-path="url(#p1eb43159bb)" d="M 0 0 
" style="fill:none;stroke:#424242;stroke-linecap:square;stroke-width:2.7;"/>
   </g>
   <g id="line2d_17">
    <path clip-path="url(#p1eb43159bb)" d="M 0 0 
" style="fill:none;stroke:#424242;stroke-linecap:square;stroke-width:2.7;"/>
   </g>
   <g id="line2d_18">
    <path clip-path="url(#p1eb43159bb)" d="M 0 0 
" style="fill:none;stroke:#424242;stroke-linecap:square;stroke-width:2.7;"/>
   </g>
   <g id="line2d_19">
    <path clip-path="url(#p1eb43159bb)" d="M 0 0 
" style="fill:none;stroke:#424242;stroke-linecap:square;stroke-width:2.7;"/>
   </g>
   <g id="line2d_20">
    <path clip-path="url(#p1eb43159bb)" d="M 0 0 
" style="fill:none;stroke:#424242;stroke-linecap:square;stroke-width:2.7;"/>
   </g>
   <g id="line2d_21">
    <path clip-path="url(#p1eb43159bb)" d="M 0 0 
" style="fill:none;stroke:#424242;stroke-linecap:square;stroke-width:2.7;"/>
   </g>
   <g id="line2d_22">
    <path clip-path="url(#p1eb43159bb)" d="M 0 0 
" style="fill:none;stroke:#424242;stroke-linecap:square;stroke-width:2.7;"/>
   </g>
   <g id="line2d_23">
    <path clip-path="url(#p1eb43159bb)" d="M 0 0 
" style="fill:none;stroke:#424242;stroke-linecap:square;stroke-width:2.7;"/>
   </g>
   <g id="line2d_24">
    <path clip-path="url(#p1eb43159bb)" d="M 0 0 
" style="fill:none;stroke:#424242;stroke-linecap:square;stroke-width:2.7;"/>
   </g>
   <g id="line2d_25">
    <path clip-path="url(#p1eb43159bb)" d="M 0 0 
" style="fill:none;stroke:#424242;stroke-linecap:square;stroke-width:2.7;"/>
   </g>
   <g id="line2d_26">
    <path clip-path="url(#p1eb43159bb)" d="M 0 0 
" style="fill:none;stroke:#424242;stroke-linecap:square;stroke-width:2.7;"/>
   </g>
   <g id="line2d_27">
    <path clip-path="url(#p1eb43159bb)" d="M 0 0 
" style="fill:none;stroke:#424242;stroke-linecap:square;stroke-width:2.7;"/>
   </g>
   <g id="line2d_28">
    <path clip-path="url(#p1eb43159bb)" d="M 0 0 
" style="fill:none;stroke:#424242;stroke-linecap:square;stroke-width:2.7;"/>
   </g>
   <g id="line2d_29">
    <path clip-path="url(#p1eb43159bb)" d="M 0 0 
" style="fill:none;stroke:#424242;stroke-linecap:square;stroke-width:2.7;"/>
   </g>
   <g id="line2d_30">
    <path clip-path="url(#p1eb43159bb)" d="M 0 0 
" style="fill:none;stroke:#424242;stroke-linecap:square;stroke-width:2.7;"/>
   </g>
   <g id="line2d_31">
    <path clip-path="url(#p1eb43159bb)" d="M 0 0 
" style="fill:none;stroke:#424242;stroke-linecap:square;stroke-width:2.7;"/>
   </g>
   <g id="line2d_32">
    <path clip-path="url(#p1eb43159bb)" d="M 0 0 
" style="fill:none;stroke:#424242;stroke-linecap:square;stroke-width:2.7;"/>
   </g>
   <g id="line2d_33">
    <path clip-path="url(#p1eb43159bb)" d="M 0 0 
" style="fill:none;stroke:#424242;stroke-linecap:square;stroke-width:2.7;"/>
   </g>
   <g id="line2d_34">
    <path clip-path="url(#p1eb43159bb)" d="M 0 0 
" style="fill:none;stroke:#424242;stroke-linecap:square;stroke-width:2.7;"/>
   </g>
   <g id="line2d_35">
    <path clip-path="url(#p1eb43159bb)" d="M 0 0 
" style="fill:none;stroke:#424242;stroke-linecap:square;stroke-width:2.7;"/>
   </g>
   <g id="line2d_36">
    <path clip-path="url(#p1eb43159bb)" d="M 0 0 
" style="fill:none;stroke:#424242;stroke-linecap:square;stroke-width:2.7;"/>
   </g>
   <g id="line2d_37">
    <path clip-path="url(#p1eb43159bb)" d="M 0 0 
" style="fill:none;stroke:#424242;stroke-linecap:square;stroke-width:2.7;"/>
   </g>
   <g id="line2d_38">
    <path clip-path="url(#p1eb43159bb)" d="M 0 0 
" style="fill:none;stroke:#424242;stroke-linecap:square;stroke-width:2.7;"/>
   </g>
   <g id="line2d_39">
    <path clip-path="url(#p1eb43159bb)" d="M 0 0 
" style="fill:none;stroke:#424242;stroke-linecap:square;stroke-width:2.7;"/>
   </g>
   <g id="line2d_40">
    <path clip-path="url(#p1eb43159bb)" d="M 0 0 
" style="fill:none;stroke:#424242;stroke-linecap:square;stroke-width:2.7;"/>
   </g>
   <g id="line2d_41">
    <path clip-path="url(#p1eb43159bb)" d="M 0 0 
" style="fill:none;stroke:#424242;stroke-linecap:square;stroke-width:2.7;"/>
   </g>
   <g id="line2d_42">
    <path clip-path="url(#p1eb43159bb)" d="M 0 0 
" style="fill:none;stroke:#424242;stroke-linecap:square;stroke-width:2.7;"/>
   </g>
   <g id="line2d_43">
    <path clip-path="url(#p1eb43159bb)" d="M 0 0 
" style="fill:none;stroke:#424242;stroke-linecap:square;stroke-width:2.7;"/>
   </g>
   <g id="line2d_44">
    <path clip-path="url(#p1eb43159bb)" d="M 0 0 
" style="fill:none;stroke:#424242;stroke-linecap:square;stroke-width:2.7;"/>
   </g>
   <g id="line2d_45">
    <path clip-path="url(#p1eb43159bb)" d="M 0 0 
" style="fill:none;stroke:#424242;stroke-linecap:square;stroke-width:2.7;"/>
   </g>
   <g id="line2d_46">
    <path clip-path="url(#p1eb43159bb)" d="M 0 0 
" style="fill:none;stroke:#424242;stroke-linecap:square;stroke-width:2.7;"/>
   </g>
   <g id="line2d_47">
    <path clip-path="url(#p1eb43159bb)" d="M 0 0 
" style="fill:none;stroke:#424242;stroke-linecap:square;stroke-width:2.7;"/>
   </g>
   <g id="line2d_48">
    <path clip-path="url(#p1eb43159bb)" d="M 0 0 
" style="fill:none;stroke:#424242;stroke-linecap:square;stroke-width:2.7;"/>
   </g>
   <g id="line2d_49">
    <path clip-path="url(#p1eb43159bb)" d="M 0 0 
" style="fill:none;stroke:#424242;stroke-linecap:square;stroke-width:2.7;"/>
   </g>
   <g id="line2d_50">
    <path clip-path="url(#p1eb43159bb)" d="M 0 0 
" style="fill:none;stroke:#424242;stroke-linecap:square;stroke-width:2.7;"/>
   </g>
   <g id="line2d_51">
    <path clip-path="url(#p1eb43159bb)" d="M 0 0 
" style="fill:none;stroke:#424242;stroke-linecap:square;stroke-width:2.7;"/>
   </g>
   <g id="line2d_52">
    <path clip-path="url(#p1eb43159bb)" d="M 0 0 
" style="fill:none;stroke:#424242;stroke-linecap:square;stroke-width:2.7;"/>
   </g>
   <g id="line2d_53">
    <path clip-path="url(#p1eb43159bb)" d="M 0 0 
" style="fill:none;stroke:#424242;stroke-linecap:square;stroke-width:2.7;"/>
   </g>
   <g id="line2d_54">
    <path clip-path="url(#p1eb43159bb)" d="M 0 0 
" style="fill:none;stroke:#424242;stroke-linecap:square;stroke-width:2.7;"/>
   </g>
   <g id="line2d_55">
    <path clip-path="url(#p1eb43159bb)" d="M 0 0 
" style="fill:none;stroke:#424242;stroke-linecap:square;stroke-width:2.7;"/>
   </g>
   <g id="line2d_56">
    <path clip-path="url(#p1eb43159bb)" d="M 0 0 
" style="fill:none;stroke:#424242;stroke-linecap:square;stroke-width:2.7;"/>
   </g>
   <g id="line2d_57">
    <path clip-path="url(#p1eb43159bb)" d="M 0 0 
" style="fill:none;stroke:#424242;stroke-linecap:square;stroke-width:2.7;"/>
   </g>
   <g id="line2d_58">
    <path clip-path="url(#p1eb43159bb)" d="M 0 0 
" style="fill:none;stroke:#424242;stroke-linecap:square;stroke-width:2.7;"/>
   </g>
   <g id="line2d_59">
    <path clip-path="url(#p1eb43159bb)" d="M 0 0 
" style="fill:none;stroke:#424242;stroke-linecap:square;stroke-width:2.7;"/>
   </g>
   <g id="line2d_60">
    <path clip-path="url(#p1eb43159bb)" d="M 0 0 
" style="fill:none;stroke:#424242;stroke-linecap:square;stroke-width:2.7;"/>
   </g>
   <g id="line2d_61">
    <path clip-path="url(#p1eb43159bb)" d="M 0 0 
" style="fill:none;stroke:#424242;stroke-linecap:square;stroke-width:2.7;"/>
   </g>
   <g id="line2d_62">
    <path clip-path="url(#p1eb43159bb)" d="M 0 0 
" style="fill:none;stroke:#424242;stroke-linecap:square;stroke-width:2.7;"/>
   </g>
   <g id="line2d_63">
    <path clip-path="url(#p1eb43159bb)" d="M 0 0 
" style="fill:none;stroke:#424242;stroke-linecap:square;stroke-width:2.7;"/>
   </g>
   <g id="line2d_64">
    <path clip-path="url(#p1eb43159bb)" d="M 0 0 
" style="fill:none;stroke:#424242;stroke-linecap:square;stroke-width:2.7;"/>
   </g>
   <g id="line2d_65">
    <path clip-path="url(#p1eb43159bb)" d="M 0 0 
" style="fill:none;stroke:#424242;stroke-linecap:square;stroke-width:2.7;"/>
   </g>
   <g id="line2d_66">
    <path clip-path="url(#p1eb43159bb)" d="M 0 0 
" style="fill:none;stroke:#424242;stroke-linecap:square;stroke-width:2.7;"/>
   </g>
   <g id="line2d_67">
    <path clip-path="url(#p1eb43159bb)" d="M 0 0 
" style="fill:none;stroke:#424242;stroke-linecap:square;stroke-width:2.7;"/>
   </g>
   <g id="line2d_68">
    <path clip-path="url(#p1eb43159bb)" d="M 0 0 
" style="fill:none;stroke:#424242;stroke-linecap:square;stroke-width:2.7;"/>
   </g>
   <g id="line2d_69">
    <path clip-path="url(#p1eb43159bb)" d="M 0 0 
" style="fill:none;stroke:#424242;stroke-linecap:square;stroke-width:2.7;"/>
   </g>
   <g id="line2d_70">
    <path clip-path="url(#p1eb43159bb)" d="M 0 0 
" style="fill:none;stroke:#424242;stroke-linecap:square;stroke-width:2.7;"/>
   </g>
   <g id="line2d_71">
    <path clip-path="url(#p1eb43159bb)" d="M 0 0 
" style="fill:none;stroke:#424242;stroke-linecap:square;stroke-width:2.7;"/>
   </g>
   <g id="line2d_72">
    <path clip-path="url(#p1eb43159bb)" d="M 0 0 
" style="fill:none;stroke:#424242;stroke-linecap:square;stroke-width:2.7;"/>
   </g>
   <g id="line2d_73">
    <path clip-path="url(#p1eb43159bb)" d="M 0 0 
" style="fill:none;stroke:#424242;stroke-linecap:square;stroke-width:2.7;"/>
   </g>
   <g id="line2d_74">
    <path clip-path="url(#p1eb43159bb)" d="M 0 0 
" style="fill:none;stroke:#424242;stroke-linecap:square;stroke-width:2.7;"/>
   </g>
   <g id="line2d_75">
    <path clip-path="url(#p1eb43159bb)" d="M 0 0 
" style="fill:none;stroke:#424242;stroke-linecap:square;stroke-width:2.7;"/>
   </g>
   <g id="patch_63">
    <path d="M 56.273893 390.2 
L 56.273893 14.3 
" style="fill:none;stroke:#000000;stroke-linecap:square;stroke-linejoin:miter;stroke-width:0.8;"/>
   </g>
   <g id="patch_64">
    <path d="M 56.273893 390.2 
L 854.4525 390.2 
" style="fill:none;stroke:#000000;stroke-linecap:square;stroke-linejoin:miter;stroke-width:0.8;"/>
   </g>
  </g>
  <g id="text_18">
   <!-- Average usage per location each month -->
   <defs>
    <path id="DejaVuSans-20"/>
    <path d="M 18.109375 8.203125 
L 18.109375 -20.796875 
L 9.078125 -20.796875 
L 9.078125 54.6875 
L 18.109375 54.6875 
L 18.109375 46.390625 
Q 20.953125 51.265625 25.265625 53.625 
Q 29.59375 56 35.59375 56 
Q 45.5625 56 51.78125 48.09375 
Q 58.015625 40.1875 58.015625 27.296875 
Q 58.015625 14.40625 51.78125 6.484375 
Q 45.5625 -1.421875 35.59375 -1.421875 
Q 29.59375 -1.421875 25.265625 0.953125 
Q 20.953125 3.328125 18.109375 8.203125 
z
M 48.6875 27.296875 
Q 48.6875 37.203125 44.609375 42.84375 
Q 40.53125 48.484375 33.40625 48.484375 
Q 26.265625 48.484375 22.1875 42.84375 
Q 18.109375 37.203125 18.109375 27.296875 
Q 18.109375 17.390625 22.1875 11.75 
Q 26.265625 6.109375 33.40625 6.109375 
Q 40.53125 6.109375 44.609375 11.75 
Q 48.6875 17.390625 48.6875 27.296875 
z
" id="DejaVuSans-70"/>
    <path d="M 48.78125 52.59375 
L 48.78125 44.1875 
Q 44.96875 46.296875 41.140625 47.34375 
Q 37.3125 48.390625 33.40625 48.390625 
Q 24.65625 48.390625 19.8125 42.84375 
Q 14.984375 37.3125 14.984375 27.296875 
Q 14.984375 17.28125 19.8125 11.734375 
Q 24.65625 6.203125 33.40625 6.203125 
Q 37.3125 6.203125 41.140625 7.25 
Q 44.96875 8.296875 48.78125 10.40625 
L 48.78125 2.09375 
Q 45.015625 0.34375 40.984375 -0.53125 
Q 36.96875 -1.421875 32.421875 -1.421875 
Q 20.0625 -1.421875 12.78125 6.34375 
Q 5.515625 14.109375 5.515625 27.296875 
Q 5.515625 40.671875 12.859375 48.328125 
Q 20.21875 56 33.015625 56 
Q 37.15625 56 41.109375 55.140625 
Q 45.0625 54.296875 48.78125 52.59375 
z
" id="DejaVuSans-63"/>
    <path d="M 52 44.1875 
Q 55.375 50.25 60.0625 53.125 
Q 64.75 56 71.09375 56 
Q 79.640625 56 84.28125 50.015625 
Q 88.921875 44.046875 88.921875 33.015625 
L 88.921875 0 
L 79.890625 0 
L 79.890625 32.71875 
Q 79.890625 40.578125 77.09375 44.375 
Q 74.3125 48.1875 68.609375 48.1875 
Q 61.625 48.1875 57.5625 43.546875 
Q 53.515625 38.921875 53.515625 30.90625 
L 53.515625 0 
L 44.484375 0 
L 44.484375 32.71875 
Q 44.484375 40.625 41.703125 44.40625 
Q 38.921875 48.1875 33.109375 48.1875 
Q 26.21875 48.1875 22.15625 43.53125 
Q 18.109375 38.875 18.109375 30.90625 
L 18.109375 0 
L 9.078125 0 
L 9.078125 54.6875 
L 18.109375 54.6875 
L 18.109375 46.1875 
Q 21.1875 51.21875 25.484375 53.609375 
Q 29.78125 56 35.6875 56 
Q 41.65625 56 45.828125 52.96875 
Q 50 49.953125 52 44.1875 
z
" id="DejaVuSans-6d"/>
   </defs>
   <g transform="translate(357.03 17.758125)scale(0.12 -0.12)">
    <use xlink:href="#DejaVuSans-41"/>
    <use x="68.330078" xlink:href="#DejaVuSans-76"/>
    <use x="127.509766" xlink:href="#DejaVuSans-65"/>
    <use x="189.033203" xlink:href="#DejaVuSans-72"/>
    <use x="230.146484" xlink:href="#DejaVuSans-61"/>
    <use x="291.425781" xlink:href="#DejaVuSans-67"/>
    <use x="354.902344" xlink:href="#DejaVuSans-65"/>
    <use x="416.425781" xlink:href="#DejaVuSans-20"/>
    <use x="448.212891" xlink:href="#DejaVuSans-75"/>
    <use x="511.591797" xlink:href="#DejaVuSans-73"/>
    <use x="563.691406" xlink:href="#DejaVuSans-61"/>
    <use x="624.970703" xlink:href="#DejaVuSans-67"/>
    <use x="688.447266" xlink:href="#DejaVuSans-65"/>
    <use x="749.970703" xlink:href="#DejaVuSans-20"/>
    <use x="781.757812" xlink:href="#DejaVuSans-70"/>
    <use x="845.234375" xlink:href="#DejaVuSans-65"/>
    <use x="906.757812" xlink:href="#DejaVuSans-72"/>
    <use x="947.871094" xlink:href="#DejaVuSans-20"/>
    <use x="979.658203" xlink:href="#DejaVuSans-6c"/>
    <use x="1007.441406" xlink:href="#DejaVuSans-6f"/>
    <use x="1068.623047" xlink:href="#DejaVuSans-63"/>
    <use x="1123.603516" xlink:href="#DejaVuSans-61"/>
    <use x="1184.882812" xlink:href="#DejaVuSans-74"/>
    <use x="1224.091797" xlink:href="#DejaVuSans-69"/>
    <use x="1251.875" xlink:href="#DejaVuSans-6f"/>
    <use x="1313.056641" xlink:href="#DejaVuSans-6e"/>
    <use x="1376.435547" xlink:href="#DejaVuSans-20"/>
    <use x="1408.222656" xlink:href="#DejaVuSans-65"/>
    <use x="1469.746094" xlink:href="#DejaVuSans-61"/>
    <use x="1531.025391" xlink:href="#DejaVuSans-63"/>
    <use x="1586.005859" xlink:href="#DejaVuSans-68"/>
    <use x="1649.384766" xlink:href="#DejaVuSans-20"/>
    <use x="1681.171875" xlink:href="#DejaVuSans-6d"/>
    <use x="1778.583984" xlink:href="#DejaVuSans-6f"/>
    <use x="1839.765625" xlink:href="#DejaVuSans-6e"/>
    <use x="1903.144531" xlink:href="#DejaVuSans-74"/>
    <use x="1942.353516" xlink:href="#DejaVuSans-68"/>
   </g>
  </g>
  <g id="legend_1">
   <g id="text_19">
    <!-- Month -->
    <g transform="translate(888.440625 145.36875)scale(0.1 -0.1)">
     <use xlink:href="#DejaVuSans-4d"/>
     <use x="86.279297" xlink:href="#DejaVuSans-6f"/>
     <use x="147.460938" xlink:href="#DejaVuSans-6e"/>
     <use x="210.839844" xlink:href="#DejaVuSans-74"/>
     <use x="250.048828" xlink:href="#DejaVuSans-68"/>
    </g>
   </g>
   <g id="patch_65">
    <path d="M 862.473438 160.046875 
L 882.473438 160.046875 
L 882.473438 153.046875 
L 862.473438 153.046875 
z
" style="fill:#774c19;"/>
   </g>
   <g id="text_20">
    <!-- January -->
    <defs>
     <path d="M 9.8125 72.90625 
L 19.671875 72.90625 
L 19.671875 5.078125 
Q 19.671875 -8.109375 14.671875 -14.0625 
Q 9.671875 -20.015625 -1.421875 -20.015625 
L -5.171875 -20.015625 
L -5.171875 -11.71875 
L -2.09375 -11.71875 
Q 4.4375 -11.71875 7.125 -8.046875 
Q 9.8125 -4.390625 9.8125 5.078125 
z
" id="DejaVuSans-4a"/>
    </defs>
    <g transform="translate(890.473438 160.046875)scale(0.1 -0.1)">
     <use xlink:href="#DejaVuSans-4a"/>
     <use x="29.492188" xlink:href="#DejaVuSans-61"/>
     <use x="90.771484" xlink:href="#DejaVuSans-6e"/>
     <use x="154.150391" xlink:href="#DejaVuSans-75"/>
     <use x="217.529297" xlink:href="#DejaVuSans-61"/>
     <use x="278.808594" xlink:href="#DejaVuSans-72"/>
     <use x="319.921875" xlink:href="#DejaVuSans-79"/>
    </g>
   </g>
   <g id="patch_66">
    <path d="M 862.473438 174.725 
L 882.473438 174.725 
L 882.473438 167.725 
L 862.473438 167.725 
z
" style="fill:#a37538;"/>
   </g>
   <g id="text_21">
    <!-- February -->
    <defs>
     <path d="M 9.8125 72.90625 
L 51.703125 72.90625 
L 51.703125 64.59375 
L 19.671875 64.59375 
L 19.671875 43.109375 
L 48.578125 43.109375 
L 48.578125 34.8125 
L 19.671875 34.8125 
L 19.671875 0 
L 9.8125 0 
z
" id="DejaVuSans-46"/>
    </defs>
    <g transform="translate(890.473438 174.725)scale(0.1 -0.1)">
     <use xlink:href="#DejaVuSans-46"/>
     <use x="57.441406" xlink:href="#DejaVuSans-65"/>
     <use x="118.964844" xlink:href="#DejaVuSans-62"/>
     <use x="182.441406" xlink:href="#DejaVuSans-72"/>
     <use x="223.554688" xlink:href="#DejaVuSans-75"/>
     <use x="286.933594" xlink:href="#DejaVuSans-61"/>
     <use x="348.212891" xlink:href="#DejaVuSans-72"/>
     <use x="389.326172" xlink:href="#DejaVuSans-79"/>
    </g>
   </g>
   <g id="patch_67">
    <path d="M 862.473438 189.403125 
L 882.473438 189.403125 
L 882.473438 182.403125 
L 862.473438 182.403125 
z
" style="fill:#c8ab73;"/>
   </g>
   <g id="text_22">
    <!-- March -->
    <g transform="translate(890.473438 189.403125)scale(0.1 -0.1)">
     <use xlink:href="#DejaVuSans-4d"/>
     <use x="86.279297" xlink:href="#DejaVuSans-61"/>
     <use x="147.558594" xlink:href="#DejaVuSans-72"/>
     <use x="188.640625" xlink:href="#DejaVuSans-63"/>
     <use x="243.621094" xlink:href="#DejaVuSans-68"/>
    </g>
   </g>
   <g id="patch_68">
    <path d="M 862.473438 204.08125 
L 882.473438 204.08125 
L 882.473438 197.08125 
L 862.473438 197.08125 
z
" style="fill:#e5d7b3;"/>
   </g>
   <g id="text_23">
    <!-- April -->
    <g transform="translate(890.473438 204.08125)scale(0.1 -0.1)">
     <use xlink:href="#DejaVuSans-41"/>
     <use x="68.408203" xlink:href="#DejaVuSans-70"/>
     <use x="131.884766" xlink:href="#DejaVuSans-72"/>
     <use x="172.998047" xlink:href="#DejaVuSans-69"/>
     <use x="200.78125" xlink:href="#DejaVuSans-6c"/>
    </g>
   </g>
   <g id="patch_69">
    <path d="M 862.473438 218.759375 
L 882.473438 218.759375 
L 882.473438 211.759375 
L 862.473438 211.759375 
z
" style="fill:#f3eee1;"/>
   </g>
   <g id="text_24">
    <!-- May -->
    <g transform="translate(890.473438 218.759375)scale(0.1 -0.1)">
     <use xlink:href="#DejaVuSans-4d"/>
     <use x="86.279297" xlink:href="#DejaVuSans-61"/>
     <use x="147.558594" xlink:href="#DejaVuSans-79"/>
    </g>
   </g>
   <g id="patch_70">
    <path d="M 862.473438 233.4375 
L 882.473438 233.4375 
L 882.473438 226.4375 
L 862.473438 226.4375 
z
" style="fill:#e2eeec;"/>
   </g>
   <g id="text_25">
    <!-- June -->
    <g transform="translate(890.473438 233.4375)scale(0.1 -0.1)">
     <use xlink:href="#DejaVuSans-4a"/>
     <use x="29.492188" xlink:href="#DejaVuSans-75"/>
     <use x="92.871094" xlink:href="#DejaVuSans-6e"/>
     <use x="156.25" xlink:href="#DejaVuSans-65"/>
    </g>
   </g>
   <g id="patch_71">
    <path d="M 862.473438 248.115625 
L 882.473438 248.115625 
L 882.473438 241.115625 
L 862.473438 241.115625 
z
" style="fill:#b4dad4;"/>
   </g>
   <g id="text_26">
    <!-- July -->
    <g transform="translate(890.473438 248.115625)scale(0.1 -0.1)">
     <use xlink:href="#DejaVuSans-4a"/>
     <use x="29.492188" xlink:href="#DejaVuSans-75"/>
     <use x="92.871094" xlink:href="#DejaVuSans-6c"/>
     <use x="120.654297" xlink:href="#DejaVuSans-79"/>
    </g>
   </g>
   <g id="patch_72">
    <path d="M 862.473438 262.79375 
L 882.473438 262.79375 
L 882.473438 255.79375 
L 862.473438 255.79375 
z
" style="fill:#74b3ab;"/>
   </g>
   <g id="text_27">
    <!-- August -->
    <g transform="translate(890.473438 262.79375)scale(0.1 -0.1)">
     <use xlink:href="#DejaVuSans-41"/>
     <use x="68.408203" xlink:href="#DejaVuSans-75"/>
     <use x="131.787109" xlink:href="#DejaVuSans-67"/>
     <use x="195.263672" xlink:href="#DejaVuSans-75"/>
     <use x="258.642578" xlink:href="#DejaVuSans-73"/>
     <use x="310.742188" xlink:href="#DejaVuSans-74"/>
    </g>
   </g>
   <g id="patch_73">
    <path d="M 862.473438 277.471875 
L 882.473438 277.471875 
L 882.473438 270.471875 
L 862.473438 270.471875 
z
" style="fill:#37817b;"/>
   </g>
   <g id="text_28">
    <!-- September -->
    <g transform="translate(890.473438 277.471875)scale(0.1 -0.1)">
     <use xlink:href="#DejaVuSans-53"/>
     <use x="63.476562" xlink:href="#DejaVuSans-65"/>
     <use x="125" xlink:href="#DejaVuSans-70"/>
     <use x="188.476562" xlink:href="#DejaVuSans-74"/>
     <use x="227.685547" xlink:href="#DejaVuSans-65"/>
     <use x="289.208984" xlink:href="#DejaVuSans-6d"/>
     <use x="386.621094" xlink:href="#DejaVuSans-62"/>
     <use x="450.097656" xlink:href="#DejaVuSans-65"/>
     <use x="511.621094" xlink:href="#DejaVuSans-72"/>
    </g>
   </g>
   <g id="patch_74">
    <path d="M 862.473438 292.15 
L 882.473438 292.15 
L 882.473438 285.15 
L 862.473438 285.15 
z
" style="fill:#0d564f;"/>
   </g>
   <g id="text_29">
    <!-- October -->
    <defs>
     <path d="M 39.40625 66.21875 
Q 28.65625 66.21875 22.328125 58.203125 
Q 16.015625 50.203125 16.015625 36.375 
Q 16.015625 22.609375 22.328125 14.59375 
Q 28.65625 6.59375 39.40625 6.59375 
Q 50.140625 6.59375 56.421875 14.59375 
Q 62.703125 22.609375 62.703125 36.375 
Q 62.703125 50.203125 56.421875 58.203125 
Q 50.140625 66.21875 39.40625 66.21875 
z
M 39.40625 74.21875 
Q 54.734375 74.21875 63.90625 63.9375 
Q 73.09375 53.65625 73.09375 36.375 
Q 73.09375 19.140625 63.90625 8.859375 
Q 54.734375 -1.421875 39.40625 -1.421875 
Q 24.03125 -1.421875 14.8125 8.828125 
Q 5.609375 19.09375 5.609375 36.375 
Q 5.609375 53.65625 14.8125 63.9375 
Q 24.03125 74.21875 39.40625 74.21875 
z
" id="DejaVuSans-4f"/>
    </defs>
    <g transform="translate(890.473438 292.15)scale(0.1 -0.1)">
     <use xlink:href="#DejaVuSans-4f"/>
     <use x="78.710938" xlink:href="#DejaVuSans-63"/>
     <use x="133.691406" xlink:href="#DejaVuSans-74"/>
     <use x="172.900391" xlink:href="#DejaVuSans-6f"/>
     <use x="234.082031" xlink:href="#DejaVuSans-62"/>
     <use x="297.558594" xlink:href="#DejaVuSans-65"/>
     <use x="359.082031" xlink:href="#DejaVuSans-72"/>
    </g>
   </g>
  </g>
 </g>
 <defs>
  <clipPath id="p1eb43159bb">
   <rect height="375.9" width="798.178607" x="56.273893" y="14.3"/>
  </clipPath>
 </defs>
</svg>
