<?xml version="1.0" encoding="utf-8" standalone="no"?>
<!DOCTYPE svg PUBLIC "-//W3C//DTD SVG 1.1//EN"
  "http://www.w3.org/Graphics/SVG/1.1/DTD/svg11.dtd">
<!-- Created with matplotlib (http://matplotlib.org/) -->
<svg height="1080pt" version="1.1" viewBox="0 0 2160 1080" width="2160pt" xmlns="http://www.w3.org/2000/svg" xmlns:xlink="http://www.w3.org/1999/xlink">
 <defs>
  <style type="text/css">
*{stroke-linecap:butt;stroke-linejoin:round;}
  </style>
 </defs>
 <g id="figure_1">
  <g id="patch_1">
   <path d="M 0 1080 
L 2160 1080 
L 2160 0 
L 0 0 
z
" style="fill:#ffffff;"/>
  </g>
  <g id="axes_1">
   <g id="patch_2">
    <path d="M 50.925 342.066667 
L 1089.4125 342.066667 
L 1089.4125 24.8 
L 50.925 24.8 
z
" style="fill:#ffffff;"/>
   </g>
   <g id="patch_3">
    <path clip-path="url(#pa841a785e5)" d="M 61.309875 342.066667 
L 144.388875 342.066667 
L 144.388875 275.827473 
L 61.309875 275.827473 
z
" style="fill:#44708f;"/>
   </g>
   <g id="patch_4">
    <path clip-path="url(#pa841a785e5)" d="M 165.158625 342.066667 
L 248.237625 342.066667 
L 248.237625 310.00784 
L 165.158625 310.00784 
z
" style="fill:#c3834a;"/>
   </g>
   <g id="patch_5">
    <path clip-path="url(#pa841a785e5)" d="M 269.007375 342.066667 
L 352.086375 342.066667 
L 352.086375 300.8145 
L 269.007375 300.8145 
z
" style="fill:#498349;"/>
   </g>
   <g id="patch_6">
    <path clip-path="url(#pa841a785e5)" d="M 372.856125 342.066667 
L 455.935125 342.066667 
L 455.935125 289.028166 
L 372.856125 289.028166 
z
" style="fill:#aa5353;"/>
   </g>
   <g id="patch_7">
    <path clip-path="url(#pa841a785e5)" d="M 476.704875 342.066667 
L 559.783875 342.066667 
L 559.783875 243.532919 
L 476.704875 243.532919 
z
" style="fill:#937ca8;"/>
   </g>
   <g id="patch_8">
    <path clip-path="url(#pa841a785e5)" d="M 580.553625 342.066667 
L 663.632625 342.066667 
L 663.632625 310.479293 
L 580.553625 310.479293 
z
" style="fill:#7c615b;"/>
   </g>
   <g id="patch_9">
    <path clip-path="url(#pa841a785e5)" d="M 684.402375 342.066667 
L 767.481375 342.066667 
L 767.481375 313.779466 
L 684.402375 313.779466 
z
" style="fill:#c892b7;"/>
   </g>
   <g id="patch_10">
    <path clip-path="url(#pa841a785e5)" d="M 788.251125 342.066667 
L 871.330125 342.066667 
L 871.330125 293.271246 
L 788.251125 293.271246 
z
" style="fill:#7f7f7f;"/>
   </g>
   <g id="patch_11">
    <path clip-path="url(#pa841a785e5)" d="M 892.099875 342.066667 
L 975.178875 342.066667 
L 975.178875 274.884566 
L 892.099875 274.884566 
z
" style="fill:#969649;"/>
   </g>
   <g id="patch_12">
    <path clip-path="url(#pa841a785e5)" d="M 995.948625 342.066667 
L 1079.027625 342.066667 
L 1079.027625 314.25092 
L 995.948625 314.25092 
z
" style="fill:#4598a1;"/>
   </g>
   <g id="matplotlib.axis_1">
    <g id="xtick_1">
     <g id="line2d_1">
      <defs>
       <path d="M 0 0 
L 0 3.5 
" id="m1ba82e0127" style="stroke:#000000;stroke-width:0.8;"/>
      </defs>
      <g>
       <use style="stroke:#000000;stroke-width:0.8;" x="102.849375" xlink:href="#m1ba82e0127" y="342.066667"/>
      </g>
     </g>
    </g>
    <g id="xtick_2">
     <g id="line2d_2">
      <g>
       <use style="stroke:#000000;stroke-width:0.8;" x="206.698125" xlink:href="#m1ba82e0127" y="342.066667"/>
      </g>
     </g>
    </g>
    <g id="xtick_3">
     <g id="line2d_3">
      <g>
       <use style="stroke:#000000;stroke-width:0.8;" x="310.546875" xlink:href="#m1ba82e0127" y="342.066667"/>
      </g>
     </g>
    </g>
    <g id="xtick_4">
     <g id="line2d_4">
      <g>
       <use style="stroke:#000000;stroke-width:0.8;" x="414.395625" xlink:href="#m1ba82e0127" y="342.066667"/>
      </g>
     </g>
    </g>
    <g id="xtick_5">
     <g id="line2d_5">
      <g>
       <use style="stroke:#000000;stroke-width:0.8;" x="518.244375" xlink:href="#m1ba82e0127" y="342.066667"/>
      </g>
     </g>
    </g>
    <g id="xtick_6">
     <g id="line2d_6">
      <g>
       <use style="stroke:#000000;stroke-width:0.8;" x="622.093125" xlink:href="#m1ba82e0127" y="342.066667"/>
      </g>
     </g>
    </g>
    <g id="xtick_7">
     <g id="line2d_7">
      <g>
       <use style="stroke:#000000;stroke-width:0.8;" x="725.941875" xlink:href="#m1ba82e0127" y="342.066667"/>
      </g>
     </g>
    </g>
    <g id="xtick_8">
     <g id="line2d_8">
      <g>
       <use style="stroke:#000000;stroke-width:0.8;" x="829.790625" xlink:href="#m1ba82e0127" y="342.066667"/>
      </g>
     </g>
    </g>
    <g id="xtick_9">
     <g id="line2d_9">
      <g>
       <use style="stroke:#000000;stroke-width:0.8;" x="933.639375" xlink:href="#m1ba82e0127" y="342.066667"/>
      </g>
     </g>
    </g>
    <g id="xtick_10">
     <g id="line2d_10">
      <g>
       <use style="stroke:#000000;stroke-width:0.8;" x="1037.488125" xlink:href="#m1ba82e0127" y="342.066667"/>
      </g>
     </g>
    </g>
   </g>
   <g id="matplotlib.axis_2">
    <g id="ytick_1">
     <g id="line2d_11">
      <defs>
       <path d="M 0 0 
L -3.5 0 
" id="m5e34e4d513" style="stroke:#000000;stroke-width:0.8;"/>
      </defs>
      <g>
       <use style="stroke:#000000;stroke-width:0.8;" x="50.925" xlink:href="#m5e34e4d513" y="342.066667"/>
      </g>
     </g>
     <g id="text_1">
      <!-- 0 -->
      <defs>
       <path d="M 31.78125 66.40625 
Q 24.171875 66.40625 20.328125 58.90625 
Q 16.5 51.421875 16.5 36.375 
Q 16.5 21.390625 20.328125 13.890625 
Q 24.171875 6.390625 31.78125 6.390625 
Q 39.453125 6.390625 43.28125 13.890625 
Q 47.125 21.390625 47.125 36.375 
Q 47.125 51.421875 43.28125 58.90625 
Q 39.453125 66.40625 31.78125 66.40625 
z
M 31.78125 74.21875 
Q 44.046875 74.21875 50.515625 64.515625 
Q 56.984375 54.828125 56.984375 36.375 
Q 56.984375 17.96875 50.515625 8.265625 
Q 44.046875 -1.421875 31.78125 -1.421875 
Q 19.53125 -1.421875 13.0625 8.265625 
Q 6.59375 17.96875 6.59375 36.375 
Q 6.59375 54.828125 13.0625 64.515625 
Q 19.53125 74.21875 31.78125 74.21875 
z
" id="DejaVuSans-30"/>
      </defs>
      <g transform="translate(37.5625 345.865885)scale(0.1 -0.1)">
       <use xlink:href="#DejaVuSans-30"/>
      </g>
     </g>
    </g>
    <g id="ytick_2">
     <g id="line2d_12">
      <g>
       <use style="stroke:#000000;stroke-width:0.8;" x="50.925" xlink:href="#m5e34e4d513" y="306.707666"/>
      </g>
     </g>
     <g id="text_2">
      <!-- 25 -->
      <defs>
       <path d="M 19.1875 8.296875 
L 53.609375 8.296875 
L 53.609375 0 
L 7.328125 0 
L 7.328125 8.296875 
Q 12.9375 14.109375 22.625 23.890625 
Q 32.328125 33.6875 34.8125 36.53125 
Q 39.546875 41.84375 41.421875 45.53125 
Q 43.3125 49.21875 43.3125 52.78125 
Q 43.3125 58.59375 39.234375 62.25 
Q 35.15625 65.921875 28.609375 65.921875 
Q 23.96875 65.921875 18.8125 64.3125 
Q 13.671875 62.703125 7.8125 59.421875 
L 7.8125 69.390625 
Q 13.765625 71.78125 18.9375 73 
Q 24.125 74.21875 28.421875 74.21875 
Q 39.75 74.21875 46.484375 68.546875 
Q 53.21875 62.890625 53.21875 53.421875 
Q 53.21875 48.921875 51.53125 44.890625 
Q 49.859375 40.875 45.40625 35.40625 
Q 44.1875 33.984375 37.640625 27.21875 
Q 31.109375 20.453125 19.1875 8.296875 
z
" id="DejaVuSans-32"/>
       <path d="M 10.796875 72.90625 
L 49.515625 72.90625 
L 49.515625 64.59375 
L 19.828125 64.59375 
L 19.828125 46.734375 
Q 21.96875 47.46875 24.109375 47.828125 
Q 26.265625 48.1875 28.421875 48.1875 
Q 40.625 48.1875 47.75 41.5 
Q 54.890625 34.8125 54.890625 23.390625 
Q 54.890625 11.625 47.5625 5.09375 
Q 40.234375 -1.421875 26.90625 -1.421875 
Q 22.3125 -1.421875 17.546875 -0.640625 
Q 12.796875 0.140625 7.71875 1.703125 
L 7.71875 11.625 
Q 12.109375 9.234375 16.796875 8.0625 
Q 21.484375 6.890625 26.703125 6.890625 
Q 35.15625 6.890625 40.078125 11.328125 
Q 45.015625 15.765625 45.015625 23.390625 
Q 45.015625 31 40.078125 35.4375 
Q 35.15625 39.890625 26.703125 39.890625 
Q 22.75 39.890625 18.8125 39.015625 
Q 14.890625 38.140625 10.796875 36.28125 
z
" id="DejaVuSans-35"/>
      </defs>
      <g transform="translate(31.2 310.506885)scale(0.1 -0.1)">
       <use xlink:href="#DejaVuSans-32"/>
       <use x="63.623047" xlink:href="#DejaVuSans-35"/>
      </g>
     </g>
    </g>
    <g id="ytick_3">
     <g id="line2d_13">
      <g>
       <use style="stroke:#000000;stroke-width:0.8;" x="50.925" xlink:href="#m5e34e4d513" y="271.348666"/>
      </g>
     </g>
     <g id="text_3">
      <!-- 50 -->
      <g transform="translate(31.2 275.147885)scale(0.1 -0.1)">
       <use xlink:href="#DejaVuSans-35"/>
       <use x="63.623047" xlink:href="#DejaVuSans-30"/>
      </g>
     </g>
    </g>
    <g id="ytick_4">
     <g id="line2d_14">
      <g>
       <use style="stroke:#000000;stroke-width:0.8;" x="50.925" xlink:href="#m5e34e4d513" y="235.989666"/>
      </g>
     </g>
     <g id="text_4">
      <!-- 75 -->
      <defs>
       <path d="M 8.203125 72.90625 
L 55.078125 72.90625 
L 55.078125 68.703125 
L 28.609375 0 
L 18.3125 0 
L 43.21875 64.59375 
L 8.203125 64.59375 
z
" id="DejaVuSans-37"/>
      </defs>
      <g transform="translate(31.2 239.788884)scale(0.1 -0.1)">
       <use xlink:href="#DejaVuSans-37"/>
       <use x="63.623047" xlink:href="#DejaVuSans-35"/>
      </g>
     </g>
    </g>
    <g id="ytick_5">
     <g id="line2d_15">
      <g>
       <use style="stroke:#000000;stroke-width:0.8;" x="50.925" xlink:href="#m5e34e4d513" y="200.630665"/>
      </g>
     </g>
     <g id="text_5">
      <!-- 100 -->
      <defs>
       <path d="M 12.40625 8.296875 
L 28.515625 8.296875 
L 28.515625 63.921875 
L 10.984375 60.40625 
L 10.984375 69.390625 
L 28.421875 72.90625 
L 38.28125 72.90625 
L 38.28125 8.296875 
L 54.390625 8.296875 
L 54.390625 0 
L 12.40625 0 
z
" id="DejaVuSans-31"/>
      </defs>
      <g transform="translate(24.8375 204.429884)scale(0.1 -0.1)">
       <use xlink:href="#DejaVuSans-31"/>
       <use x="63.623047" xlink:href="#DejaVuSans-30"/>
       <use x="127.246094" xlink:href="#DejaVuSans-30"/>
      </g>
     </g>
    </g>
    <g id="ytick_6">
     <g id="line2d_16">
      <g>
       <use style="stroke:#000000;stroke-width:0.8;" x="50.925" xlink:href="#m5e34e4d513" y="165.271665"/>
      </g>
     </g>
     <g id="text_6">
      <!-- 125 -->
      <g transform="translate(24.8375 169.070884)scale(0.1 -0.1)">
       <use xlink:href="#DejaVuSans-31"/>
       <use x="63.623047" xlink:href="#DejaVuSans-32"/>
       <use x="127.246094" xlink:href="#DejaVuSans-35"/>
      </g>
     </g>
    </g>
    <g id="ytick_7">
     <g id="line2d_17">
      <g>
       <use style="stroke:#000000;stroke-width:0.8;" x="50.925" xlink:href="#m5e34e4d513" y="129.912665"/>
      </g>
     </g>
     <g id="text_7">
      <!-- 150 -->
      <g transform="translate(24.8375 133.711883)scale(0.1 -0.1)">
       <use xlink:href="#DejaVuSans-31"/>
       <use x="63.623047" xlink:href="#DejaVuSans-35"/>
       <use x="127.246094" xlink:href="#DejaVuSans-30"/>
      </g>
     </g>
    </g>
    <g id="ytick_8">
     <g id="line2d_18">
      <g>
       <use style="stroke:#000000;stroke-width:0.8;" x="50.925" xlink:href="#m5e34e4d513" y="94.553664"/>
      </g>
     </g>
     <g id="text_8">
      <!-- 175 -->
      <g transform="translate(24.8375 98.352883)scale(0.1 -0.1)">
       <use xlink:href="#DejaVuSans-31"/>
       <use x="63.623047" xlink:href="#DejaVuSans-37"/>
       <use x="127.246094" xlink:href="#DejaVuSans-35"/>
      </g>
     </g>
    </g>
    <g id="ytick_9">
     <g id="line2d_19">
      <g>
       <use style="stroke:#000000;stroke-width:0.8;" x="50.925" xlink:href="#m5e34e4d513" y="59.194664"/>
      </g>
     </g>
     <g id="text_9">
      <!-- 200 -->
      <g transform="translate(24.8375 62.993883)scale(0.1 -0.1)">
       <use xlink:href="#DejaVuSans-32"/>
       <use x="63.623047" xlink:href="#DejaVuSans-30"/>
       <use x="127.246094" xlink:href="#DejaVuSans-30"/>
      </g>
     </g>
    </g>
    <g id="text_10">
     <!-- AverageUsageMonth -->
     <defs>
      <path d="M 34.1875 63.1875 
L 20.796875 26.90625 
L 47.609375 26.90625 
z
M 28.609375 72.90625 
L 39.796875 72.90625 
L 67.578125 0 
L 57.328125 0 
L 50.6875 18.703125 
L 17.828125 18.703125 
L 11.1875 0 
L 0.78125 0 
z
" id="DejaVuSans-41"/>
      <path d="M 2.984375 54.6875 
L 12.5 54.6875 
L 29.59375 8.796875 
L 46.6875 54.6875 
L 56.203125 54.6875 
L 35.6875 0 
L 23.484375 0 
z
" id="DejaVuSans-76"/>
      <path d="M 56.203125 29.59375 
L 56.203125 25.203125 
L 14.890625 25.203125 
Q 15.484375 15.921875 20.484375 11.0625 
Q 25.484375 6.203125 34.421875 6.203125 
Q 39.59375 6.203125 44.453125 7.46875 
Q 49.3125 8.734375 54.109375 11.28125 
L 54.109375 2.78125 
Q 49.265625 0.734375 44.1875 -0.34375 
Q 39.109375 -1.421875 33.890625 -1.421875 
Q 20.796875 -1.421875 13.15625 6.1875 
Q 5.515625 13.8125 5.515625 26.8125 
Q 5.515625 40.234375 12.765625 48.109375 
Q 20.015625 56 32.328125 56 
Q 43.359375 56 49.78125 48.890625 
Q 56.203125 41.796875 56.203125 29.59375 
z
M 47.21875 32.234375 
Q 47.125 39.59375 43.09375 43.984375 
Q 39.0625 48.390625 32.421875 48.390625 
Q 24.90625 48.390625 20.390625 44.140625 
Q 15.875 39.890625 15.1875 32.171875 
z
" id="DejaVuSans-65"/>
      <path d="M 41.109375 46.296875 
Q 39.59375 47.171875 37.8125 47.578125 
Q 36.03125 48 33.890625 48 
Q 26.265625 48 22.1875 43.046875 
Q 18.109375 38.09375 18.109375 28.8125 
L 18.109375 0 
L 9.078125 0 
L 9.078125 54.6875 
L 18.109375 54.6875 
L 18.109375 46.1875 
Q 20.953125 51.171875 25.484375 53.578125 
Q 30.03125 56 36.53125 56 
Q 37.453125 56 38.578125 55.875 
Q 39.703125 55.765625 41.0625 55.515625 
z
" id="DejaVuSans-72"/>
      <path d="M 34.28125 27.484375 
Q 23.390625 27.484375 19.1875 25 
Q 14.984375 22.515625 14.984375 16.5 
Q 14.984375 11.71875 18.140625 8.90625 
Q 21.296875 6.109375 26.703125 6.109375 
Q 34.1875 6.109375 38.703125 11.40625 
Q 43.21875 16.703125 43.21875 25.484375 
L 43.21875 27.484375 
z
M 52.203125 31.203125 
L 52.203125 0 
L 43.21875 0 
L 43.21875 8.296875 
Q 40.140625 3.328125 35.546875 0.953125 
Q 30.953125 -1.421875 24.3125 -1.421875 
Q 15.921875 -1.421875 10.953125 3.296875 
Q 6 8.015625 6 15.921875 
Q 6 25.140625 12.171875 29.828125 
Q 18.359375 34.515625 30.609375 34.515625 
L 43.21875 34.515625 
L 43.21875 35.40625 
Q 43.21875 41.609375 39.140625 45 
Q 35.0625 48.390625 27.6875 48.390625 
Q 23 48.390625 18.546875 47.265625 
Q 14.109375 46.140625 10.015625 43.890625 
L 10.015625 52.203125 
Q 14.9375 54.109375 19.578125 55.046875 
Q 24.21875 56 28.609375 56 
Q 40.484375 56 46.34375 49.84375 
Q 52.203125 43.703125 52.203125 31.203125 
z
" id="DejaVuSans-61"/>
      <path d="M 45.40625 27.984375 
Q 45.40625 37.75 41.375 43.109375 
Q 37.359375 48.484375 30.078125 48.484375 
Q 22.859375 48.484375 18.828125 43.109375 
Q 14.796875 37.75 14.796875 27.984375 
Q 14.796875 18.265625 18.828125 12.890625 
Q 22.859375 7.515625 30.078125 7.515625 
Q 37.359375 7.515625 41.375 12.890625 
Q 45.40625 18.265625 45.40625 27.984375 
z
M 54.390625 6.78125 
Q 54.390625 -7.171875 48.1875 -13.984375 
Q 42 -20.796875 29.203125 -20.796875 
Q 24.46875 -20.796875 20.265625 -20.09375 
Q 16.0625 -19.390625 12.109375 -17.921875 
L 12.109375 -9.1875 
Q 16.0625 -11.328125 19.921875 -12.34375 
Q 23.78125 -13.375 27.78125 -13.375 
Q 36.625 -13.375 41.015625 -8.765625 
Q 45.40625 -4.15625 45.40625 5.171875 
L 45.40625 9.625 
Q 42.625 4.78125 38.28125 2.390625 
Q 33.9375 0 27.875 0 
Q 17.828125 0 11.671875 7.65625 
Q 5.515625 15.328125 5.515625 27.984375 
Q 5.515625 40.671875 11.671875 48.328125 
Q 17.828125 56 27.875 56 
Q 33.9375 56 38.28125 53.609375 
Q 42.625 51.21875 45.40625 46.390625 
L 45.40625 54.6875 
L 54.390625 54.6875 
z
" id="DejaVuSans-67"/>
      <path d="M 8.6875 72.90625 
L 18.609375 72.90625 
L 18.609375 28.609375 
Q 18.609375 16.890625 22.84375 11.734375 
Q 27.09375 6.59375 36.625 6.59375 
Q 46.09375 6.59375 50.34375 11.734375 
Q 54.59375 16.890625 54.59375 28.609375 
L 54.59375 72.90625 
L 64.5 72.90625 
L 64.5 27.390625 
Q 64.5 13.140625 57.4375 5.859375 
Q 50.390625 -1.421875 36.625 -1.421875 
Q 22.796875 -1.421875 15.734375 5.859375 
Q 8.6875 13.140625 8.6875 27.390625 
z
" id="DejaVuSans-55"/>
      <path d="M 44.28125 53.078125 
L 44.28125 44.578125 
Q 40.484375 46.53125 36.375 47.5 
Q 32.28125 48.484375 27.875 48.484375 
Q 21.1875 48.484375 17.84375 46.4375 
Q 14.5 44.390625 14.5 40.28125 
Q 14.5 37.15625 16.890625 35.375 
Q 19.28125 33.59375 26.515625 31.984375 
L 29.59375 31.296875 
Q 39.15625 29.25 43.1875 25.515625 
Q 47.21875 21.78125 47.21875 15.09375 
Q 47.21875 7.46875 41.1875 3.015625 
Q 35.15625 -1.421875 24.609375 -1.421875 
Q 20.21875 -1.421875 15.453125 -0.5625 
Q 10.6875 0.296875 5.421875 2 
L 5.421875 11.28125 
Q 10.40625 8.6875 15.234375 7.390625 
Q 20.0625 6.109375 24.8125 6.109375 
Q 31.15625 6.109375 34.5625 8.28125 
Q 37.984375 10.453125 37.984375 14.40625 
Q 37.984375 18.0625 35.515625 20.015625 
Q 33.0625 21.96875 24.703125 23.78125 
L 21.578125 24.515625 
Q 13.234375 26.265625 9.515625 29.90625 
Q 5.8125 33.546875 5.8125 39.890625 
Q 5.8125 47.609375 11.28125 51.796875 
Q 16.75 56 26.8125 56 
Q 31.78125 56 36.171875 55.265625 
Q 40.578125 54.546875 44.28125 53.078125 
z
" id="DejaVuSans-73"/>
      <path d="M 9.8125 72.90625 
L 24.515625 72.90625 
L 43.109375 23.296875 
L 61.8125 72.90625 
L 76.515625 72.90625 
L 76.515625 0 
L 66.890625 0 
L 66.890625 64.015625 
L 48.09375 14.015625 
L 38.1875 14.015625 
L 19.390625 64.015625 
L 19.390625 0 
L 9.8125 0 
z
" id="DejaVuSans-4d"/>
      <path d="M 30.609375 48.390625 
Q 23.390625 48.390625 19.1875 42.75 
Q 14.984375 37.109375 14.984375 27.296875 
Q 14.984375 17.484375 19.15625 11.84375 
Q 23.34375 6.203125 30.609375 6.203125 
Q 37.796875 6.203125 41.984375 11.859375 
Q 46.1875 17.53125 46.1875 27.296875 
Q 46.1875 37.015625 41.984375 42.703125 
Q 37.796875 48.390625 30.609375 48.390625 
z
M 30.609375 56 
Q 42.328125 56 49.015625 48.375 
Q 55.71875 40.765625 55.71875 27.296875 
Q 55.71875 13.875 49.015625 6.21875 
Q 42.328125 -1.421875 30.609375 -1.421875 
Q 18.84375 -1.421875 12.171875 6.21875 
Q 5.515625 13.875 5.515625 27.296875 
Q 5.515625 40.765625 12.171875 48.375 
Q 18.84375 56 30.609375 56 
z
" id="DejaVuSans-6f"/>
      <path d="M 54.890625 33.015625 
L 54.890625 0 
L 45.90625 0 
L 45.90625 32.71875 
Q 45.90625 40.484375 42.875 44.328125 
Q 39.84375 48.1875 33.796875 48.1875 
Q 26.515625 48.1875 22.3125 43.546875 
Q 18.109375 38.921875 18.109375 30.90625 
L 18.109375 0 
L 9.078125 0 
L 9.078125 54.6875 
L 18.109375 54.6875 
L 18.109375 46.1875 
Q 21.34375 51.125 25.703125 53.5625 
Q 30.078125 56 35.796875 56 
Q 45.21875 56 50.046875 50.171875 
Q 54.890625 44.34375 54.890625 33.015625 
z
" id="DejaVuSans-6e"/>
      <path d="M 18.3125 70.21875 
L 18.3125 54.6875 
L 36.8125 54.6875 
L 36.8125 47.703125 
L 18.3125 47.703125 
L 18.3125 18.015625 
Q 18.3125 11.328125 20.140625 9.421875 
Q 21.96875 7.515625 27.59375 7.515625 
L 36.8125 7.515625 
L 36.8125 0 
L 27.59375 0 
Q 17.1875 0 13.234375 3.875 
Q 9.28125 7.765625 9.28125 18.015625 
L 9.28125 47.703125 
L 2.6875 47.703125 
L 2.6875 54.6875 
L 9.28125 54.6875 
L 9.28125 70.21875 
z
" id="DejaVuSans-74"/>
      <path d="M 54.890625 33.015625 
L 54.890625 0 
L 45.90625 0 
L 45.90625 32.71875 
Q 45.90625 40.484375 42.875 44.328125 
Q 39.84375 48.1875 33.796875 48.1875 
Q 26.515625 48.1875 22.3125 43.546875 
Q 18.109375 38.921875 18.109375 30.90625 
L 18.109375 0 
L 9.078125 0 
L 9.078125 75.984375 
L 18.109375 75.984375 
L 18.109375 46.1875 
Q 21.34375 51.125 25.703125 53.5625 
Q 30.078125 56 35.796875 56 
Q 45.21875 56 50.046875 50.171875 
Q 54.890625 44.34375 54.890625 33.015625 
z
" id="DejaVuSans-68"/>
     </defs>
     <g transform="translate(18.757812 235.50599)rotate(-90)scale(0.1 -0.1)">
      <use xlink:href="#DejaVuSans-41"/>
      <use x="68.330078" xlink:href="#DejaVuSans-76"/>
      <use x="127.509766" xlink:href="#DejaVuSans-65"/>
      <use x="189.033203" xlink:href="#DejaVuSans-72"/>
      <use x="230.146484" xlink:href="#DejaVuSans-61"/>
      <use x="291.425781" xlink:href="#DejaVuSans-67"/>
      <use x="354.902344" xlink:href="#DejaVuSans-65"/>
      <use x="416.425781" xlink:href="#DejaVuSans-55"/>
      <use x="489.619141" xlink:href="#DejaVuSans-73"/>
      <use x="541.71875" xlink:href="#DejaVuSans-61"/>
      <use x="602.998047" xlink:href="#DejaVuSans-67"/>
      <use x="666.474609" xlink:href="#DejaVuSans-65"/>
      <use x="727.998047" xlink:href="#DejaVuSans-4d"/>
      <use x="814.277344" xlink:href="#DejaVuSans-6f"/>
      <use x="875.458984" xlink:href="#DejaVuSans-6e"/>
      <use x="938.837891" xlink:href="#DejaVuSans-74"/>
      <use x="978.046875" xlink:href="#DejaVuSans-68"/>
     </g>
    </g>
   </g>
   <g id="patch_13">
    <path d="M 50.925 342.066667 
L 50.925 24.8 
" style="fill:none;stroke:#000000;stroke-linecap:square;stroke-linejoin:miter;stroke-width:0.8;"/>
   </g>
   <g id="patch_14">
    <path d="M 50.925 342.066667 
L 1089.4125 342.066667 
" style="fill:none;stroke:#000000;stroke-linecap:square;stroke-linejoin:miter;stroke-width:0.8;"/>
   </g>
   <g id="text_11">
    <!-- City = Glasgow -->
    <defs>
     <path d="M 64.40625 67.28125 
L 64.40625 56.890625 
Q 59.421875 61.53125 53.78125 63.8125 
Q 48.140625 66.109375 41.796875 66.109375 
Q 29.296875 66.109375 22.65625 58.46875 
Q 16.015625 50.828125 16.015625 36.375 
Q 16.015625 21.96875 22.65625 14.328125 
Q 29.296875 6.6875 41.796875 6.6875 
Q 48.140625 6.6875 53.78125 8.984375 
Q 59.421875 11.28125 64.40625 15.921875 
L 64.40625 5.609375 
Q 59.234375 2.09375 53.4375 0.328125 
Q 47.65625 -1.421875 41.21875 -1.421875 
Q 24.65625 -1.421875 15.125 8.703125 
Q 5.609375 18.84375 5.609375 36.375 
Q 5.609375 53.953125 15.125 64.078125 
Q 24.65625 74.21875 41.21875 74.21875 
Q 47.75 74.21875 53.53125 72.484375 
Q 59.328125 70.75 64.40625 67.28125 
z
" id="DejaVuSans-43"/>
     <path d="M 9.421875 54.6875 
L 18.40625 54.6875 
L 18.40625 0 
L 9.421875 0 
z
M 9.421875 75.984375 
L 18.40625 75.984375 
L 18.40625 64.59375 
L 9.421875 64.59375 
z
" id="DejaVuSans-69"/>
     <path d="M 32.171875 -5.078125 
Q 28.375 -14.84375 24.75 -17.8125 
Q 21.140625 -20.796875 15.09375 -20.796875 
L 7.90625 -20.796875 
L 7.90625 -13.28125 
L 13.1875 -13.28125 
Q 16.890625 -13.28125 18.9375 -11.515625 
Q 21 -9.765625 23.484375 -3.21875 
L 25.09375 0.875 
L 2.984375 54.6875 
L 12.5 54.6875 
L 29.59375 11.921875 
L 46.6875 54.6875 
L 56.203125 54.6875 
z
" id="DejaVuSans-79"/>
     <path id="DejaVuSans-20"/>
     <path d="M 10.59375 45.40625 
L 73.1875 45.40625 
L 73.1875 37.203125 
L 10.59375 37.203125 
z
M 10.59375 25.484375 
L 73.1875 25.484375 
L 73.1875 17.1875 
L 10.59375 17.1875 
z
" id="DejaVuSans-3d"/>
     <path d="M 59.515625 10.40625 
L 59.515625 29.984375 
L 43.40625 29.984375 
L 43.40625 38.09375 
L 69.28125 38.09375 
L 69.28125 6.78125 
Q 63.578125 2.734375 56.6875 0.65625 
Q 49.8125 -1.421875 42 -1.421875 
Q 24.90625 -1.421875 15.25 8.5625 
Q 5.609375 18.5625 5.609375 36.375 
Q 5.609375 54.25 15.25 64.234375 
Q 24.90625 74.21875 42 74.21875 
Q 49.125 74.21875 55.546875 72.453125 
Q 61.96875 70.703125 67.390625 67.28125 
L 67.390625 56.78125 
Q 61.921875 61.421875 55.765625 63.765625 
Q 49.609375 66.109375 42.828125 66.109375 
Q 29.4375 66.109375 22.71875 58.640625 
Q 16.015625 51.171875 16.015625 36.375 
Q 16.015625 21.625 22.71875 14.15625 
Q 29.4375 6.6875 42.828125 6.6875 
Q 48.046875 6.6875 52.140625 7.59375 
Q 56.25 8.5 59.515625 10.40625 
z
" id="DejaVuSans-47"/>
     <path d="M 9.421875 75.984375 
L 18.40625 75.984375 
L 18.40625 0 
L 9.421875 0 
z
" id="DejaVuSans-6c"/>
     <path d="M 4.203125 54.6875 
L 13.1875 54.6875 
L 24.421875 12.015625 
L 35.59375 54.6875 
L 46.1875 54.6875 
L 57.421875 12.015625 
L 68.609375 54.6875 
L 77.59375 54.6875 
L 63.28125 0 
L 52.6875 0 
L 40.921875 44.828125 
L 29.109375 0 
L 18.5 0 
z
" id="DejaVuSans-77"/>
    </defs>
    <g transform="translate(531.746094 18.8)scale(0.1 -0.1)">
     <use xlink:href="#DejaVuSans-43"/>
     <use x="69.824219" xlink:href="#DejaVuSans-69"/>
     <use x="97.607422" xlink:href="#DejaVuSans-74"/>
     <use x="136.816406" xlink:href="#DejaVuSans-79"/>
     <use x="195.996094" xlink:href="#DejaVuSans-20"/>
     <use x="227.783203" xlink:href="#DejaVuSans-3d"/>
     <use x="311.572266" xlink:href="#DejaVuSans-20"/>
     <use x="343.359375" xlink:href="#DejaVuSans-47"/>
     <use x="420.849609" xlink:href="#DejaVuSans-6c"/>
     <use x="448.632812" xlink:href="#DejaVuSans-61"/>
     <use x="509.912109" xlink:href="#DejaVuSans-73"/>
     <use x="562.011719" xlink:href="#DejaVuSans-67"/>
     <use x="625.488281" xlink:href="#DejaVuSans-6f"/>
     <use x="686.669922" xlink:href="#DejaVuSans-77"/>
    </g>
   </g>
  </g>
  <g id="axes_2">
   <g id="patch_15">
    <path d="M 1107.2125 342.066667 
L 2145.7 342.066667 
L 2145.7 24.8 
L 1107.2125 24.8 
z
" style="fill:#ffffff;"/>
   </g>
   <g id="patch_16">
    <path clip-path="url(#p259bbfbab1)" d="M 1117.597375 342.066667 
L 1200.676375 342.066667 
L 1200.676375 204.230854 
L 1117.597375 204.230854 
z
" style="fill:#44708f;"/>
   </g>
   <g id="patch_17">
    <path clip-path="url(#p259bbfbab1)" d="M 1221.446125 342.066667 
L 1304.525125 342.066667 
L 1304.525125 206.545262 
L 1221.446125 206.545262 
z
" style="fill:#c3834a;"/>
   </g>
   <g id="patch_18">
    <path clip-path="url(#p259bbfbab1)" d="M 1325.294875 342.066667 
L 1408.373875 342.066667 
L 1408.373875 56.494522 
L 1325.294875 56.494522 
z
" style="fill:#498349;"/>
   </g>
   <g id="patch_19">
    <path clip-path="url(#p259bbfbab1)" d="M 1429.143625 342.066667 
L 1512.222625 342.066667 
L 1512.222625 39.907937 
L 1429.143625 39.907937 
z
" style="fill:#aa5353;"/>
   </g>
   <g id="patch_20">
    <path clip-path="url(#p259bbfbab1)" d="M 1532.992375 342.066667 
L 1616.071375 342.066667 
L 1616.071375 100.596839 
L 1532.992375 100.596839 
z
" style="fill:#937ca8;"/>
   </g>
   <g id="patch_21">
    <path clip-path="url(#p259bbfbab1)" d="M 1636.841125 342.066667 
L 1719.920125 342.066667 
L 1719.920125 100.082526 
L 1636.841125 100.082526 
z
" style="fill:#7c615b;"/>
   </g>
   <g id="patch_22">
    <path clip-path="url(#p259bbfbab1)" d="M 1740.689875 342.066667 
L 1823.768875 342.066667 
L 1823.768875 41.965187 
L 1740.689875 41.965187 
z
" style="fill:#c892b7;"/>
   </g>
   <g id="patch_23">
    <path clip-path="url(#p259bbfbab1)" d="M 1844.538625 342.066667 
L 1927.617625 342.066667 
L 1927.617625 115.897643 
L 1844.538625 115.897643 
z
" style="fill:#7f7f7f;"/>
   </g>
   <g id="patch_24">
    <path clip-path="url(#p259bbfbab1)" d="M 1948.387375 342.066667 
L 2031.466375 342.066667 
L 2031.466375 98.41101 
L 1948.387375 98.41101 
z
" style="fill:#969649;"/>
   </g>
   <g id="patch_25">
    <path clip-path="url(#p259bbfbab1)" d="M 2052.236125 342.066667 
L 2135.315125 342.066667 
L 2135.315125 65.10926 
L 2052.236125 65.10926 
z
" style="fill:#4598a1;"/>
   </g>
   <g id="matplotlib.axis_3">
    <g id="xtick_11">
     <g id="line2d_20">
      <g>
       <use style="stroke:#000000;stroke-width:0.8;" x="1159.136875" xlink:href="#m1ba82e0127" y="342.066667"/>
      </g>
     </g>
    </g>
    <g id="xtick_12">
     <g id="line2d_21">
      <g>
       <use style="stroke:#000000;stroke-width:0.8;" x="1262.985625" xlink:href="#m1ba82e0127" y="342.066667"/>
      </g>
     </g>
    </g>
    <g id="xtick_13">
     <g id="line2d_22">
      <g>
       <use style="stroke:#000000;stroke-width:0.8;" x="1366.834375" xlink:href="#m1ba82e0127" y="342.066667"/>
      </g>
     </g>
    </g>
    <g id="xtick_14">
     <g id="line2d_23">
      <g>
       <use style="stroke:#000000;stroke-width:0.8;" x="1470.683125" xlink:href="#m1ba82e0127" y="342.066667"/>
      </g>
     </g>
    </g>
    <g id="xtick_15">
     <g id="line2d_24">
      <g>
       <use style="stroke:#000000;stroke-width:0.8;" x="1574.531875" xlink:href="#m1ba82e0127" y="342.066667"/>
      </g>
     </g>
    </g>
    <g id="xtick_16">
     <g id="line2d_25">
      <g>
       <use style="stroke:#000000;stroke-width:0.8;" x="1678.380625" xlink:href="#m1ba82e0127" y="342.066667"/>
      </g>
     </g>
    </g>
    <g id="xtick_17">
     <g id="line2d_26">
      <g>
       <use style="stroke:#000000;stroke-width:0.8;" x="1782.229375" xlink:href="#m1ba82e0127" y="342.066667"/>
      </g>
     </g>
    </g>
    <g id="xtick_18">
     <g id="line2d_27">
      <g>
       <use style="stroke:#000000;stroke-width:0.8;" x="1886.078125" xlink:href="#m1ba82e0127" y="342.066667"/>
      </g>
     </g>
    </g>
    <g id="xtick_19">
     <g id="line2d_28">
      <g>
       <use style="stroke:#000000;stroke-width:0.8;" x="1989.926875" xlink:href="#m1ba82e0127" y="342.066667"/>
      </g>
     </g>
    </g>
    <g id="xtick_20">
     <g id="line2d_29">
      <g>
       <use style="stroke:#000000;stroke-width:0.8;" x="2093.775625" xlink:href="#m1ba82e0127" y="342.066667"/>
      </g>
     </g>
    </g>
   </g>
   <g id="matplotlib.axis_4">
    <g id="ytick_10">
     <g id="line2d_30">
      <g>
       <use style="stroke:#000000;stroke-width:0.8;" x="1107.2125" xlink:href="#m5e34e4d513" y="342.066667"/>
      </g>
     </g>
    </g>
    <g id="ytick_11">
     <g id="line2d_31">
      <g>
       <use style="stroke:#000000;stroke-width:0.8;" x="1107.2125" xlink:href="#m5e34e4d513" y="306.707666"/>
      </g>
     </g>
    </g>
    <g id="ytick_12">
     <g id="line2d_32">
      <g>
       <use style="stroke:#000000;stroke-width:0.8;" x="1107.2125" xlink:href="#m5e34e4d513" y="271.348666"/>
      </g>
     </g>
    </g>
    <g id="ytick_13">
     <g id="line2d_33">
      <g>
       <use style="stroke:#000000;stroke-width:0.8;" x="1107.2125" xlink:href="#m5e34e4d513" y="235.989666"/>
      </g>
     </g>
    </g>
    <g id="ytick_14">
     <g id="line2d_34">
      <g>
       <use style="stroke:#000000;stroke-width:0.8;" x="1107.2125" xlink:href="#m5e34e4d513" y="200.630665"/>
      </g>
     </g>
    </g>
    <g id="ytick_15">
     <g id="line2d_35">
      <g>
       <use style="stroke:#000000;stroke-width:0.8;" x="1107.2125" xlink:href="#m5e34e4d513" y="165.271665"/>
      </g>
     </g>
    </g>
    <g id="ytick_16">
     <g id="line2d_36">
      <g>
       <use style="stroke:#000000;stroke-width:0.8;" x="1107.2125" xlink:href="#m5e34e4d513" y="129.912665"/>
      </g>
     </g>
    </g>
    <g id="ytick_17">
     <g id="line2d_37">
      <g>
       <use style="stroke:#000000;stroke-width:0.8;" x="1107.2125" xlink:href="#m5e34e4d513" y="94.553664"/>
      </g>
     </g>
    </g>
    <g id="ytick_18">
     <g id="line2d_38">
      <g>
       <use style="stroke:#000000;stroke-width:0.8;" x="1107.2125" xlink:href="#m5e34e4d513" y="59.194664"/>
      </g>
     </g>
    </g>
   </g>
   <g id="patch_26">
    <path d="M 1107.2125 342.066667 
L 1107.2125 24.8 
" style="fill:none;stroke:#000000;stroke-linecap:square;stroke-linejoin:miter;stroke-width:0.8;"/>
   </g>
   <g id="patch_27">
    <path d="M 1107.2125 342.066667 
L 2145.7 342.066667 
" style="fill:none;stroke:#000000;stroke-linecap:square;stroke-linejoin:miter;stroke-width:0.8;"/>
   </g>
   <g id="text_12">
    <!-- City = Ayr -->
    <g transform="translate(1600.857813 18.8)scale(0.1 -0.1)">
     <use xlink:href="#DejaVuSans-43"/>
     <use x="69.824219" xlink:href="#DejaVuSans-69"/>
     <use x="97.607422" xlink:href="#DejaVuSans-74"/>
     <use x="136.816406" xlink:href="#DejaVuSans-79"/>
     <use x="195.996094" xlink:href="#DejaVuSans-20"/>
     <use x="227.783203" xlink:href="#DejaVuSans-3d"/>
     <use x="311.572266" xlink:href="#DejaVuSans-20"/>
     <use x="343.359375" xlink:href="#DejaVuSans-41"/>
     <use x="411.673828" xlink:href="#DejaVuSans-79"/>
     <use x="470.853516" xlink:href="#DejaVuSans-72"/>
    </g>
   </g>
  </g>
  <g id="axes_3">
   <g id="patch_28">
    <path d="M 50.925 690.133333 
L 1089.4125 690.133333 
L 1089.4125 372.866667 
L 50.925 372.866667 
z
" style="fill:#ffffff;"/>
   </g>
   <g id="patch_29">
    <path clip-path="url(#pd20438bac4)" d="M 61.309875 690.133333 
L 144.388875 690.133333 
L 144.388875 560.783681 
L 61.309875 560.783681 
z
" style="fill:#44708f;"/>
   </g>
   <g id="patch_30">
    <path clip-path="url(#pd20438bac4)" d="M 165.158625 690.133333 
L 248.237625 690.133333 
L 248.237625 574.862992 
L 165.158625 574.862992 
z
" style="fill:#c3834a;"/>
   </g>
   <g id="patch_31">
    <path clip-path="url(#pd20438bac4)" d="M 269.007375 690.133333 
L 352.086375 690.133333 
L 352.086375 535.903803 
L 269.007375 535.903803 
z
" style="fill:#498349;"/>
   </g>
   <g id="patch_32">
    <path clip-path="url(#pd20438bac4)" d="M 372.856125 690.133333 
L 455.935125 690.133333 
L 455.935125 558.919298 
L 372.856125 558.919298 
z
" style="fill:#aa5353;"/>
   </g>
   <g id="patch_33">
    <path clip-path="url(#pd20438bac4)" d="M 476.704875 690.133333 
L 559.783875 690.133333 
L 559.783875 567.405458 
L 476.704875 567.405458 
z
" style="fill:#937ca8;"/>
   </g>
   <g id="patch_34">
    <path clip-path="url(#pd20438bac4)" d="M 580.553625 690.133333 
L 663.632625 690.133333 
L 663.632625 577.048821 
L 580.553625 577.048821 
z
" style="fill:#7c615b;"/>
   </g>
   <g id="patch_35">
    <path clip-path="url(#pd20438bac4)" d="M 684.402375 690.133333 
L 767.481375 690.133333 
L 767.481375 613.95076 
L 684.402375 613.95076 
z
" style="fill:#c892b7;"/>
   </g>
   <g id="patch_36">
    <path clip-path="url(#pd20438bac4)" d="M 788.251125 690.133333 
L 871.330125 690.133333 
L 871.330125 647.766822 
L 788.251125 647.766822 
z
" style="fill:#7f7f7f;"/>
   </g>
   <g id="patch_37">
    <path clip-path="url(#pd20438bac4)" d="M 892.099875 690.133333 
L 975.178875 690.133333 
L 975.178875 585.406403 
L 892.099875 585.406403 
z
" style="fill:#969649;"/>
   </g>
   <g id="patch_38">
    <path clip-path="url(#pd20438bac4)" d="M 995.948625 690.133333 
L 1079.027625 690.133333 
L 1079.027625 597.557042 
L 995.948625 597.557042 
z
" style="fill:#4598a1;"/>
   </g>
   <g id="matplotlib.axis_5">
    <g id="xtick_21">
     <g id="line2d_39">
      <g>
       <use style="stroke:#000000;stroke-width:0.8;" x="102.849375" xlink:href="#m1ba82e0127" y="690.133333"/>
      </g>
     </g>
    </g>
    <g id="xtick_22">
     <g id="line2d_40">
      <g>
       <use style="stroke:#000000;stroke-width:0.8;" x="206.698125" xlink:href="#m1ba82e0127" y="690.133333"/>
      </g>
     </g>
    </g>
    <g id="xtick_23">
     <g id="line2d_41">
      <g>
       <use style="stroke:#000000;stroke-width:0.8;" x="310.546875" xlink:href="#m1ba82e0127" y="690.133333"/>
      </g>
     </g>
    </g>
    <g id="xtick_24">
     <g id="line2d_42">
      <g>
       <use style="stroke:#000000;stroke-width:0.8;" x="414.395625" xlink:href="#m1ba82e0127" y="690.133333"/>
      </g>
     </g>
    </g>
    <g id="xtick_25">
     <g id="line2d_43">
      <g>
       <use style="stroke:#000000;stroke-width:0.8;" x="518.244375" xlink:href="#m1ba82e0127" y="690.133333"/>
      </g>
     </g>
    </g>
    <g id="xtick_26">
     <g id="line2d_44">
      <g>
       <use style="stroke:#000000;stroke-width:0.8;" x="622.093125" xlink:href="#m1ba82e0127" y="690.133333"/>
      </g>
     </g>
    </g>
    <g id="xtick_27">
     <g id="line2d_45">
      <g>
       <use style="stroke:#000000;stroke-width:0.8;" x="725.941875" xlink:href="#m1ba82e0127" y="690.133333"/>
      </g>
     </g>
    </g>
    <g id="xtick_28">
     <g id="line2d_46">
      <g>
       <use style="stroke:#000000;stroke-width:0.8;" x="829.790625" xlink:href="#m1ba82e0127" y="690.133333"/>
      </g>
     </g>
    </g>
    <g id="xtick_29">
     <g id="line2d_47">
      <g>
       <use style="stroke:#000000;stroke-width:0.8;" x="933.639375" xlink:href="#m1ba82e0127" y="690.133333"/>
      </g>
     </g>
    </g>
    <g id="xtick_30">
     <g id="line2d_48">
      <g>
       <use style="stroke:#000000;stroke-width:0.8;" x="1037.488125" xlink:href="#m1ba82e0127" y="690.133333"/>
      </g>
     </g>
    </g>
   </g>
   <g id="matplotlib.axis_6">
    <g id="ytick_19">
     <g id="line2d_49">
      <g>
       <use style="stroke:#000000;stroke-width:0.8;" x="50.925" xlink:href="#m5e34e4d513" y="690.133333"/>
      </g>
     </g>
     <g id="text_13">
      <!-- 0 -->
      <g transform="translate(37.5625 693.932552)scale(0.1 -0.1)">
       <use xlink:href="#DejaVuSans-30"/>
      </g>
     </g>
    </g>
    <g id="ytick_20">
     <g id="line2d_50">
      <g>
       <use style="stroke:#000000;stroke-width:0.8;" x="50.925" xlink:href="#m5e34e4d513" y="654.774333"/>
      </g>
     </g>
     <g id="text_14">
      <!-- 25 -->
      <g transform="translate(31.2 658.573552)scale(0.1 -0.1)">
       <use xlink:href="#DejaVuSans-32"/>
       <use x="63.623047" xlink:href="#DejaVuSans-35"/>
      </g>
     </g>
    </g>
    <g id="ytick_21">
     <g id="line2d_51">
      <g>
       <use style="stroke:#000000;stroke-width:0.8;" x="50.925" xlink:href="#m5e34e4d513" y="619.415333"/>
      </g>
     </g>
     <g id="text_15">
      <!-- 50 -->
      <g transform="translate(31.2 623.214551)scale(0.1 -0.1)">
       <use xlink:href="#DejaVuSans-35"/>
       <use x="63.623047" xlink:href="#DejaVuSans-30"/>
      </g>
     </g>
    </g>
    <g id="ytick_22">
     <g id="line2d_52">
      <g>
       <use style="stroke:#000000;stroke-width:0.8;" x="50.925" xlink:href="#m5e34e4d513" y="584.056332"/>
      </g>
     </g>
     <g id="text_16">
      <!-- 75 -->
      <g transform="translate(31.2 587.855551)scale(0.1 -0.1)">
       <use xlink:href="#DejaVuSans-37"/>
       <use x="63.623047" xlink:href="#DejaVuSans-35"/>
      </g>
     </g>
    </g>
    <g id="ytick_23">
     <g id="line2d_53">
      <g>
       <use style="stroke:#000000;stroke-width:0.8;" x="50.925" xlink:href="#m5e34e4d513" y="548.697332"/>
      </g>
     </g>
     <g id="text_17">
      <!-- 100 -->
      <g transform="translate(24.8375 552.496551)scale(0.1 -0.1)">
       <use xlink:href="#DejaVuSans-31"/>
       <use x="63.623047" xlink:href="#DejaVuSans-30"/>
       <use x="127.246094" xlink:href="#DejaVuSans-30"/>
      </g>
     </g>
    </g>
    <g id="ytick_24">
     <g id="line2d_54">
      <g>
       <use style="stroke:#000000;stroke-width:0.8;" x="50.925" xlink:href="#m5e34e4d513" y="513.338332"/>
      </g>
     </g>
     <g id="text_18">
      <!-- 125 -->
      <g transform="translate(24.8375 517.13755)scale(0.1 -0.1)">
       <use xlink:href="#DejaVuSans-31"/>
       <use x="63.623047" xlink:href="#DejaVuSans-32"/>
       <use x="127.246094" xlink:href="#DejaVuSans-35"/>
      </g>
     </g>
    </g>
    <g id="ytick_25">
     <g id="line2d_55">
      <g>
       <use style="stroke:#000000;stroke-width:0.8;" x="50.925" xlink:href="#m5e34e4d513" y="477.979331"/>
      </g>
     </g>
     <g id="text_19">
      <!-- 150 -->
      <g transform="translate(24.8375 481.77855)scale(0.1 -0.1)">
       <use xlink:href="#DejaVuSans-31"/>
       <use x="63.623047" xlink:href="#DejaVuSans-35"/>
       <use x="127.246094" xlink:href="#DejaVuSans-30"/>
      </g>
     </g>
    </g>
    <g id="ytick_26">
     <g id="line2d_56">
      <g>
       <use style="stroke:#000000;stroke-width:0.8;" x="50.925" xlink:href="#m5e34e4d513" y="442.620331"/>
      </g>
     </g>
     <g id="text_20">
      <!-- 175 -->
      <g transform="translate(24.8375 446.41955)scale(0.1 -0.1)">
       <use xlink:href="#DejaVuSans-31"/>
       <use x="63.623047" xlink:href="#DejaVuSans-37"/>
       <use x="127.246094" xlink:href="#DejaVuSans-35"/>
      </g>
     </g>
    </g>
    <g id="ytick_27">
     <g id="line2d_57">
      <g>
       <use style="stroke:#000000;stroke-width:0.8;" x="50.925" xlink:href="#m5e34e4d513" y="407.261331"/>
      </g>
     </g>
     <g id="text_21">
      <!-- 200 -->
      <g transform="translate(24.8375 411.060549)scale(0.1 -0.1)">
       <use xlink:href="#DejaVuSans-32"/>
       <use x="63.623047" xlink:href="#DejaVuSans-30"/>
       <use x="127.246094" xlink:href="#DejaVuSans-30"/>
      </g>
     </g>
    </g>
    <g id="text_22">
     <!-- AverageUsageMonth -->
     <g transform="translate(18.757812 583.572656)rotate(-90)scale(0.1 -0.1)">
      <use xlink:href="#DejaVuSans-41"/>
      <use x="68.330078" xlink:href="#DejaVuSans-76"/>
      <use x="127.509766" xlink:href="#DejaVuSans-65"/>
      <use x="189.033203" xlink:href="#DejaVuSans-72"/>
      <use x="230.146484" xlink:href="#DejaVuSans-61"/>
      <use x="291.425781" xlink:href="#DejaVuSans-67"/>
      <use x="354.902344" xlink:href="#DejaVuSans-65"/>
      <use x="416.425781" xlink:href="#DejaVuSans-55"/>
      <use x="489.619141" xlink:href="#DejaVuSans-73"/>
      <use x="541.71875" xlink:href="#DejaVuSans-61"/>
      <use x="602.998047" xlink:href="#DejaVuSans-67"/>
      <use x="666.474609" xlink:href="#DejaVuSans-65"/>
      <use x="727.998047" xlink:href="#DejaVuSans-4d"/>
      <use x="814.277344" xlink:href="#DejaVuSans-6f"/>
      <use x="875.458984" xlink:href="#DejaVuSans-6e"/>
      <use x="938.837891" xlink:href="#DejaVuSans-74"/>
      <use x="978.046875" xlink:href="#DejaVuSans-68"/>
     </g>
    </g>
   </g>
   <g id="patch_39">
    <path d="M 50.925 690.133333 
L 50.925 372.866667 
" style="fill:none;stroke:#000000;stroke-linecap:square;stroke-linejoin:miter;stroke-width:0.8;"/>
   </g>
   <g id="patch_40">
    <path d="M 50.925 690.133333 
L 1089.4125 690.133333 
" style="fill:none;stroke:#000000;stroke-linecap:square;stroke-linejoin:miter;stroke-width:0.8;"/>
   </g>
   <g id="text_23">
    <!-- City = Dundee -->
    <defs>
     <path d="M 19.671875 64.796875 
L 19.671875 8.109375 
L 31.59375 8.109375 
Q 46.6875 8.109375 53.6875 14.9375 
Q 60.6875 21.78125 60.6875 36.53125 
Q 60.6875 51.171875 53.6875 57.984375 
Q 46.6875 64.796875 31.59375 64.796875 
z
M 9.8125 72.90625 
L 30.078125 72.90625 
Q 51.265625 72.90625 61.171875 64.09375 
Q 71.09375 55.28125 71.09375 36.53125 
Q 71.09375 17.671875 61.125 8.828125 
Q 51.171875 0 30.078125 0 
L 9.8125 0 
z
" id="DejaVuSans-44"/>
     <path d="M 8.5 21.578125 
L 8.5 54.6875 
L 17.484375 54.6875 
L 17.484375 21.921875 
Q 17.484375 14.15625 20.5 10.265625 
Q 23.53125 6.390625 29.59375 6.390625 
Q 36.859375 6.390625 41.078125 11.03125 
Q 45.3125 15.671875 45.3125 23.6875 
L 45.3125 54.6875 
L 54.296875 54.6875 
L 54.296875 0 
L 45.3125 0 
L 45.3125 8.40625 
Q 42.046875 3.421875 37.71875 1 
Q 33.40625 -1.421875 27.6875 -1.421875 
Q 18.265625 -1.421875 13.375 4.4375 
Q 8.5 10.296875 8.5 21.578125 
z
M 31.109375 56 
z
" id="DejaVuSans-75"/>
     <path d="M 45.40625 46.390625 
L 45.40625 75.984375 
L 54.390625 75.984375 
L 54.390625 0 
L 45.40625 0 
L 45.40625 8.203125 
Q 42.578125 3.328125 38.25 0.953125 
Q 33.9375 -1.421875 27.875 -1.421875 
Q 17.96875 -1.421875 11.734375 6.484375 
Q 5.515625 14.40625 5.515625 27.296875 
Q 5.515625 40.1875 11.734375 48.09375 
Q 17.96875 56 27.875 56 
Q 33.9375 56 38.25 53.625 
Q 42.578125 51.265625 45.40625 46.390625 
z
M 14.796875 27.296875 
Q 14.796875 17.390625 18.875 11.75 
Q 22.953125 6.109375 30.078125 6.109375 
Q 37.203125 6.109375 41.296875 11.75 
Q 45.40625 17.390625 45.40625 27.296875 
Q 45.40625 37.203125 41.296875 42.84375 
Q 37.203125 48.484375 30.078125 48.484375 
Q 22.953125 48.484375 18.875 42.84375 
Q 14.796875 37.203125 14.796875 27.296875 
z
" id="DejaVuSans-64"/>
    </defs>
    <g transform="translate(533.485938 366.866667)scale(0.1 -0.1)">
     <use xlink:href="#DejaVuSans-43"/>
     <use x="69.824219" xlink:href="#DejaVuSans-69"/>
     <use x="97.607422" xlink:href="#DejaVuSans-74"/>
     <use x="136.816406" xlink:href="#DejaVuSans-79"/>
     <use x="195.996094" xlink:href="#DejaVuSans-20"/>
     <use x="227.783203" xlink:href="#DejaVuSans-3d"/>
     <use x="311.572266" xlink:href="#DejaVuSans-20"/>
     <use x="343.359375" xlink:href="#DejaVuSans-44"/>
     <use x="420.361328" xlink:href="#DejaVuSans-75"/>
     <use x="483.740234" xlink:href="#DejaVuSans-6e"/>
     <use x="547.119141" xlink:href="#DejaVuSans-64"/>
     <use x="610.595703" xlink:href="#DejaVuSans-65"/>
     <use x="672.119141" xlink:href="#DejaVuSans-65"/>
    </g>
   </g>
  </g>
  <g id="axes_4">
   <g id="patch_41">
    <path d="M 1107.2125 690.133333 
L 2145.7 690.133333 
L 2145.7 372.866667 
L 1107.2125 372.866667 
z
" style="fill:#ffffff;"/>
   </g>
   <g id="patch_42">
    <path clip-path="url(#pf5c8ee0569)" d="M 1117.597375 690.133333 
L 1200.676375 690.133333 
L 1200.676375 605.324116 
L 1117.597375 605.324116 
z
" style="fill:#44708f;"/>
   </g>
   <g id="patch_43">
    <path clip-path="url(#pf5c8ee0569)" d="M 1221.446125 690.133333 
L 1304.525125 690.133333 
L 1304.525125 621.091611 
L 1221.446125 621.091611 
z
" style="fill:#c3834a;"/>
   </g>
   <g id="patch_44">
    <path clip-path="url(#pf5c8ee0569)" d="M 1325.294875 690.133333 
L 1408.373875 690.133333 
L 1408.373875 580.284706 
L 1325.294875 580.284706 
z
" style="fill:#498349;"/>
   </g>
   <g id="patch_45">
    <path clip-path="url(#pf5c8ee0569)" d="M 1429.143625 690.133333 
L 1512.222625 690.133333 
L 1512.222625 540.001637 
L 1429.143625 540.001637 
z
" style="fill:#aa5353;"/>
   </g>
   <g id="patch_46">
    <path clip-path="url(#pf5c8ee0569)" d="M 1532.992375 690.133333 
L 1616.071375 690.133333 
L 1616.071375 517.162342 
L 1532.992375 517.162342 
z
" style="fill:#937ca8;"/>
   </g>
   <g id="patch_47">
    <path clip-path="url(#pf5c8ee0569)" d="M 1636.841125 690.133333 
L 1719.920125 690.133333 
L 1719.920125 537.539603 
L 1636.841125 537.539603 
z
" style="fill:#7c615b;"/>
   </g>
   <g id="patch_48">
    <path clip-path="url(#pf5c8ee0569)" d="M 1740.689875 690.133333 
L 1823.768875 690.133333 
L 1823.768875 568.445988 
L 1740.689875 568.445988 
z
" style="fill:#c892b7;"/>
   </g>
   <g id="patch_49">
    <path clip-path="url(#pf5c8ee0569)" d="M 1844.538625 690.133333 
L 1927.617625 690.133333 
L 1927.617625 544.978089 
L 1844.538625 544.978089 
z
" style="fill:#7f7f7f;"/>
   </g>
   <g id="patch_50">
    <path clip-path="url(#pf5c8ee0569)" d="M 1948.387375 690.133333 
L 2031.466375 690.133333 
L 2031.466375 535.549022 
L 1948.387375 535.549022 
z
" style="fill:#969649;"/>
   </g>
   <g id="patch_51">
    <path clip-path="url(#pf5c8ee0569)" d="M 2052.236125 690.133333 
L 2135.315125 690.133333 
L 2135.315125 570.59372 
L 2052.236125 570.59372 
z
" style="fill:#4598a1;"/>
   </g>
   <g id="matplotlib.axis_7">
    <g id="xtick_31">
     <g id="line2d_58">
      <g>
       <use style="stroke:#000000;stroke-width:0.8;" x="1159.136875" xlink:href="#m1ba82e0127" y="690.133333"/>
      </g>
     </g>
    </g>
    <g id="xtick_32">
     <g id="line2d_59">
      <g>
       <use style="stroke:#000000;stroke-width:0.8;" x="1262.985625" xlink:href="#m1ba82e0127" y="690.133333"/>
      </g>
     </g>
    </g>
    <g id="xtick_33">
     <g id="line2d_60">
      <g>
       <use style="stroke:#000000;stroke-width:0.8;" x="1366.834375" xlink:href="#m1ba82e0127" y="690.133333"/>
      </g>
     </g>
    </g>
    <g id="xtick_34">
     <g id="line2d_61">
      <g>
       <use style="stroke:#000000;stroke-width:0.8;" x="1470.683125" xlink:href="#m1ba82e0127" y="690.133333"/>
      </g>
     </g>
    </g>
    <g id="xtick_35">
     <g id="line2d_62">
      <g>
       <use style="stroke:#000000;stroke-width:0.8;" x="1574.531875" xlink:href="#m1ba82e0127" y="690.133333"/>
      </g>
     </g>
    </g>
    <g id="xtick_36">
     <g id="line2d_63">
      <g>
       <use style="stroke:#000000;stroke-width:0.8;" x="1678.380625" xlink:href="#m1ba82e0127" y="690.133333"/>
      </g>
     </g>
    </g>
    <g id="xtick_37">
     <g id="line2d_64">
      <g>
       <use style="stroke:#000000;stroke-width:0.8;" x="1782.229375" xlink:href="#m1ba82e0127" y="690.133333"/>
      </g>
     </g>
    </g>
    <g id="xtick_38">
     <g id="line2d_65">
      <g>
       <use style="stroke:#000000;stroke-width:0.8;" x="1886.078125" xlink:href="#m1ba82e0127" y="690.133333"/>
      </g>
     </g>
    </g>
    <g id="xtick_39">
     <g id="line2d_66">
      <g>
       <use style="stroke:#000000;stroke-width:0.8;" x="1989.926875" xlink:href="#m1ba82e0127" y="690.133333"/>
      </g>
     </g>
    </g>
    <g id="xtick_40">
     <g id="line2d_67">
      <g>
       <use style="stroke:#000000;stroke-width:0.8;" x="2093.775625" xlink:href="#m1ba82e0127" y="690.133333"/>
      </g>
     </g>
    </g>
   </g>
   <g id="matplotlib.axis_8">
    <g id="ytick_28">
     <g id="line2d_68">
      <g>
       <use style="stroke:#000000;stroke-width:0.8;" x="1107.2125" xlink:href="#m5e34e4d513" y="690.133333"/>
      </g>
     </g>
    </g>
    <g id="ytick_29">
     <g id="line2d_69">
      <g>
       <use style="stroke:#000000;stroke-width:0.8;" x="1107.2125" xlink:href="#m5e34e4d513" y="654.774333"/>
      </g>
     </g>
    </g>
    <g id="ytick_30">
     <g id="line2d_70">
      <g>
       <use style="stroke:#000000;stroke-width:0.8;" x="1107.2125" xlink:href="#m5e34e4d513" y="619.415333"/>
      </g>
     </g>
    </g>
    <g id="ytick_31">
     <g id="line2d_71">
      <g>
       <use style="stroke:#000000;stroke-width:0.8;" x="1107.2125" xlink:href="#m5e34e4d513" y="584.056332"/>
      </g>
     </g>
    </g>
    <g id="ytick_32">
     <g id="line2d_72">
      <g>
       <use style="stroke:#000000;stroke-width:0.8;" x="1107.2125" xlink:href="#m5e34e4d513" y="548.697332"/>
      </g>
     </g>
    </g>
    <g id="ytick_33">
     <g id="line2d_73">
      <g>
       <use style="stroke:#000000;stroke-width:0.8;" x="1107.2125" xlink:href="#m5e34e4d513" y="513.338332"/>
      </g>
     </g>
    </g>
    <g id="ytick_34">
     <g id="line2d_74">
      <g>
       <use style="stroke:#000000;stroke-width:0.8;" x="1107.2125" xlink:href="#m5e34e4d513" y="477.979331"/>
      </g>
     </g>
    </g>
    <g id="ytick_35">
     <g id="line2d_75">
      <g>
       <use style="stroke:#000000;stroke-width:0.8;" x="1107.2125" xlink:href="#m5e34e4d513" y="442.620331"/>
      </g>
     </g>
    </g>
    <g id="ytick_36">
     <g id="line2d_76">
      <g>
       <use style="stroke:#000000;stroke-width:0.8;" x="1107.2125" xlink:href="#m5e34e4d513" y="407.261331"/>
      </g>
     </g>
    </g>
   </g>
   <g id="patch_52">
    <path d="M 1107.2125 690.133333 
L 1107.2125 372.866667 
" style="fill:none;stroke:#000000;stroke-linecap:square;stroke-linejoin:miter;stroke-width:0.8;"/>
   </g>
   <g id="patch_53">
    <path d="M 1107.2125 690.133333 
L 2145.7 690.133333 
" style="fill:none;stroke:#000000;stroke-linecap:square;stroke-linejoin:miter;stroke-width:0.8;"/>
   </g>
   <g id="text_24">
    <!-- City = Edinburgh -->
    <defs>
     <path d="M 9.8125 72.90625 
L 55.90625 72.90625 
L 55.90625 64.59375 
L 19.671875 64.59375 
L 19.671875 43.015625 
L 54.390625 43.015625 
L 54.390625 34.71875 
L 19.671875 34.71875 
L 19.671875 8.296875 
L 56.78125 8.296875 
L 56.78125 0 
L 9.8125 0 
z
" id="DejaVuSans-45"/>
     <path d="M 48.6875 27.296875 
Q 48.6875 37.203125 44.609375 42.84375 
Q 40.53125 48.484375 33.40625 48.484375 
Q 26.265625 48.484375 22.1875 42.84375 
Q 18.109375 37.203125 18.109375 27.296875 
Q 18.109375 17.390625 22.1875 11.75 
Q 26.265625 6.109375 33.40625 6.109375 
Q 40.53125 6.109375 44.609375 11.75 
Q 48.6875 17.390625 48.6875 27.296875 
z
M 18.109375 46.390625 
Q 20.953125 51.265625 25.265625 53.625 
Q 29.59375 56 35.59375 56 
Q 45.5625 56 51.78125 48.09375 
Q 58.015625 40.1875 58.015625 27.296875 
Q 58.015625 14.40625 51.78125 6.484375 
Q 45.5625 -1.421875 35.59375 -1.421875 
Q 29.59375 -1.421875 25.265625 0.953125 
Q 20.953125 3.328125 18.109375 8.203125 
L 18.109375 0 
L 9.078125 0 
L 9.078125 75.984375 
L 18.109375 75.984375 
z
" id="DejaVuSans-62"/>
    </defs>
    <g transform="translate(1583.65625 366.866667)scale(0.1 -0.1)">
     <use xlink:href="#DejaVuSans-43"/>
     <use x="69.824219" xlink:href="#DejaVuSans-69"/>
     <use x="97.607422" xlink:href="#DejaVuSans-74"/>
     <use x="136.816406" xlink:href="#DejaVuSans-79"/>
     <use x="195.996094" xlink:href="#DejaVuSans-20"/>
     <use x="227.783203" xlink:href="#DejaVuSans-3d"/>
     <use x="311.572266" xlink:href="#DejaVuSans-20"/>
     <use x="343.359375" xlink:href="#DejaVuSans-45"/>
     <use x="406.542969" xlink:href="#DejaVuSans-64"/>
     <use x="470.019531" xlink:href="#DejaVuSans-69"/>
     <use x="497.802734" xlink:href="#DejaVuSans-6e"/>
     <use x="561.181641" xlink:href="#DejaVuSans-62"/>
     <use x="624.658203" xlink:href="#DejaVuSans-75"/>
     <use x="688.037109" xlink:href="#DejaVuSans-72"/>
     <use x="729.134766" xlink:href="#DejaVuSans-67"/>
     <use x="792.611328" xlink:href="#DejaVuSans-68"/>
    </g>
   </g>
  </g>
  <g id="axes_5">
   <g id="patch_54">
    <path d="M 50.925 1038.2 
L 1089.4125 1038.2 
L 1089.4125 720.933333 
L 50.925 720.933333 
z
" style="fill:#ffffff;"/>
   </g>
   <g id="patch_55">
    <path clip-path="url(#p49a0f11f32)" d="M 61.309875 1038.2 
L 144.388875 1038.2 
L 144.388875 899.356992 
L 61.309875 899.356992 
z
" style="fill:#44708f;"/>
   </g>
   <g id="patch_56">
    <path clip-path="url(#p49a0f11f32)" d="M 165.158625 1038.2 
L 248.237625 1038.2 
L 248.237625 888.120687 
L 165.158625 888.120687 
z
" style="fill:#c3834a;"/>
   </g>
   <g id="patch_57">
    <path clip-path="url(#p49a0f11f32)" d="M 269.007375 1038.2 
L 352.086375 1038.2 
L 352.086375 858.183401 
L 269.007375 858.183401 
z
" style="fill:#498349;"/>
   </g>
   <g id="patch_58">
    <path clip-path="url(#p49a0f11f32)" d="M 372.856125 1038.2 
L 455.935125 1038.2 
L 455.935125 881.284614 
L 372.856125 881.284614 
z
" style="fill:#aa5353;"/>
   </g>
   <g id="patch_59">
    <path clip-path="url(#p49a0f11f32)" d="M 476.704875 1038.2 
L 559.783875 1038.2 
L 559.783875 867.533892 
L 476.704875 867.533892 
z
" style="fill:#937ca8;"/>
   </g>
   <g id="patch_60">
    <path clip-path="url(#p49a0f11f32)" d="M 580.553625 1038.2 
L 663.632625 1038.2 
L 663.632625 898.649812 
L 580.553625 898.649812 
z
" style="fill:#7c615b;"/>
   </g>
   <g id="patch_61">
    <path clip-path="url(#p49a0f11f32)" d="M 684.402375 1038.2 
L 767.481375 1038.2 
L 767.481375 834.610734 
L 684.402375 834.610734 
z
" style="fill:#c892b7;"/>
   </g>
   <g id="patch_62">
    <path clip-path="url(#p49a0f11f32)" d="M 788.251125 1038.2 
L 871.330125 1038.2 
L 871.330125 795.165804 
L 788.251125 795.165804 
z
" style="fill:#7f7f7f;"/>
   </g>
   <g id="patch_63">
    <path clip-path="url(#p49a0f11f32)" d="M 892.099875 1038.2 
L 975.178875 1038.2 
L 975.178875 841.525383 
L 892.099875 841.525383 
z
" style="fill:#969649;"/>
   </g>
   <g id="patch_64">
    <path clip-path="url(#p49a0f11f32)" d="M 995.948625 1038.2 
L 1079.027625 1038.2 
L 1079.027625 917.822248 
L 995.948625 917.822248 
z
" style="fill:#4598a1;"/>
   </g>
   <g id="matplotlib.axis_9">
    <g id="xtick_41">
     <g id="line2d_77">
      <g>
       <use style="stroke:#000000;stroke-width:0.8;" x="102.849375" xlink:href="#m1ba82e0127" y="1038.2"/>
      </g>
     </g>
     <g id="text_25">
      <!-- January -->
      <defs>
       <path d="M 9.8125 72.90625 
L 19.671875 72.90625 
L 19.671875 5.078125 
Q 19.671875 -8.109375 14.671875 -14.0625 
Q 9.671875 -20.015625 -1.421875 -20.015625 
L -5.171875 -20.015625 
L -5.171875 -11.71875 
L -2.09375 -11.71875 
Q 4.4375 -11.71875 7.125 -8.046875 
Q 9.8125 -4.390625 9.8125 5.078125 
z
" id="DejaVuSans-4a"/>
      </defs>
      <g transform="translate(83.893906 1052.798438)scale(0.1 -0.1)">
       <use xlink:href="#DejaVuSans-4a"/>
       <use x="29.492188" xlink:href="#DejaVuSans-61"/>
       <use x="90.771484" xlink:href="#DejaVuSans-6e"/>
       <use x="154.150391" xlink:href="#DejaVuSans-75"/>
       <use x="217.529297" xlink:href="#DejaVuSans-61"/>
       <use x="278.808594" xlink:href="#DejaVuSans-72"/>
       <use x="319.921875" xlink:href="#DejaVuSans-79"/>
      </g>
     </g>
    </g>
    <g id="xtick_42">
     <g id="line2d_78">
      <g>
       <use style="stroke:#000000;stroke-width:0.8;" x="206.698125" xlink:href="#m1ba82e0127" y="1038.2"/>
      </g>
     </g>
     <g id="text_26">
      <!-- February -->
      <defs>
       <path d="M 9.8125 72.90625 
L 51.703125 72.90625 
L 51.703125 64.59375 
L 19.671875 64.59375 
L 19.671875 43.109375 
L 48.578125 43.109375 
L 48.578125 34.8125 
L 19.671875 34.8125 
L 19.671875 0 
L 9.8125 0 
z
" id="DejaVuSans-46"/>
      </defs>
      <g transform="translate(184.272344 1052.798438)scale(0.1 -0.1)">
       <use xlink:href="#DejaVuSans-46"/>
       <use x="57.441406" xlink:href="#DejaVuSans-65"/>
       <use x="118.964844" xlink:href="#DejaVuSans-62"/>
       <use x="182.441406" xlink:href="#DejaVuSans-72"/>
       <use x="223.554688" xlink:href="#DejaVuSans-75"/>
       <use x="286.933594" xlink:href="#DejaVuSans-61"/>
       <use x="348.212891" xlink:href="#DejaVuSans-72"/>
       <use x="389.326172" xlink:href="#DejaVuSans-79"/>
      </g>
     </g>
    </g>
    <g id="xtick_43">
     <g id="line2d_79">
      <g>
       <use style="stroke:#000000;stroke-width:0.8;" x="310.546875" xlink:href="#m1ba82e0127" y="1038.2"/>
      </g>
     </g>
     <g id="text_27">
      <!-- March -->
      <defs>
       <path d="M 48.78125 52.59375 
L 48.78125 44.1875 
Q 44.96875 46.296875 41.140625 47.34375 
Q 37.3125 48.390625 33.40625 48.390625 
Q 24.65625 48.390625 19.8125 42.84375 
Q 14.984375 37.3125 14.984375 27.296875 
Q 14.984375 17.28125 19.8125 11.734375 
Q 24.65625 6.203125 33.40625 6.203125 
Q 37.3125 6.203125 41.140625 7.25 
Q 44.96875 8.296875 48.78125 10.40625 
L 48.78125 2.09375 
Q 45.015625 0.34375 40.984375 -0.53125 
Q 36.96875 -1.421875 32.421875 -1.421875 
Q 20.0625 -1.421875 12.78125 6.34375 
Q 5.515625 14.109375 5.515625 27.296875 
Q 5.515625 40.671875 12.859375 48.328125 
Q 20.21875 56 33.015625 56 
Q 37.15625 56 41.109375 55.140625 
Q 45.0625 54.296875 48.78125 52.59375 
z
" id="DejaVuSans-63"/>
      </defs>
      <g transform="translate(295.196875 1052.798438)scale(0.1 -0.1)">
       <use xlink:href="#DejaVuSans-4d"/>
       <use x="86.279297" xlink:href="#DejaVuSans-61"/>
       <use x="147.558594" xlink:href="#DejaVuSans-72"/>
       <use x="188.640625" xlink:href="#DejaVuSans-63"/>
       <use x="243.621094" xlink:href="#DejaVuSans-68"/>
      </g>
     </g>
    </g>
    <g id="xtick_44">
     <g id="line2d_80">
      <g>
       <use style="stroke:#000000;stroke-width:0.8;" x="414.395625" xlink:href="#m1ba82e0127" y="1038.2"/>
      </g>
     </g>
     <g id="text_28">
      <!-- April -->
      <defs>
       <path d="M 18.109375 8.203125 
L 18.109375 -20.796875 
L 9.078125 -20.796875 
L 9.078125 54.6875 
L 18.109375 54.6875 
L 18.109375 46.390625 
Q 20.953125 51.265625 25.265625 53.625 
Q 29.59375 56 35.59375 56 
Q 45.5625 56 51.78125 48.09375 
Q 58.015625 40.1875 58.015625 27.296875 
Q 58.015625 14.40625 51.78125 6.484375 
Q 45.5625 -1.421875 35.59375 -1.421875 
Q 29.59375 -1.421875 25.265625 0.953125 
Q 20.953125 3.328125 18.109375 8.203125 
z
M 48.6875 27.296875 
Q 48.6875 37.203125 44.609375 42.84375 
Q 40.53125 48.484375 33.40625 48.484375 
Q 26.265625 48.484375 22.1875 42.84375 
Q 18.109375 37.203125 18.109375 27.296875 
Q 18.109375 17.390625 22.1875 11.75 
Q 26.265625 6.109375 33.40625 6.109375 
Q 40.53125 6.109375 44.609375 11.75 
Q 48.6875 17.390625 48.6875 27.296875 
z
" id="DejaVuSans-70"/>
      </defs>
      <g transform="translate(402.9675 1052.798438)scale(0.1 -0.1)">
       <use xlink:href="#DejaVuSans-41"/>
       <use x="68.408203" xlink:href="#DejaVuSans-70"/>
       <use x="131.884766" xlink:href="#DejaVuSans-72"/>
       <use x="172.998047" xlink:href="#DejaVuSans-69"/>
       <use x="200.78125" xlink:href="#DejaVuSans-6c"/>
      </g>
     </g>
    </g>
    <g id="xtick_45">
     <g id="line2d_81">
      <g>
       <use style="stroke:#000000;stroke-width:0.8;" x="518.244375" xlink:href="#m1ba82e0127" y="1038.2"/>
      </g>
     </g>
     <g id="text_29">
      <!-- May -->
      <g transform="translate(507.906875 1052.798438)scale(0.1 -0.1)">
       <use xlink:href="#DejaVuSans-4d"/>
       <use x="86.279297" xlink:href="#DejaVuSans-61"/>
       <use x="147.558594" xlink:href="#DejaVuSans-79"/>
      </g>
     </g>
    </g>
    <g id="xtick_46">
     <g id="line2d_82">
      <g>
       <use style="stroke:#000000;stroke-width:0.8;" x="622.093125" xlink:href="#m1ba82e0127" y="1038.2"/>
      </g>
     </g>
     <g id="text_30">
      <!-- June -->
      <g transform="translate(611.204063 1052.798438)scale(0.1 -0.1)">
       <use xlink:href="#DejaVuSans-4a"/>
       <use x="29.492188" xlink:href="#DejaVuSans-75"/>
       <use x="92.871094" xlink:href="#DejaVuSans-6e"/>
       <use x="156.25" xlink:href="#DejaVuSans-65"/>
      </g>
     </g>
    </g>
    <g id="xtick_47">
     <g id="line2d_83">
      <g>
       <use style="stroke:#000000;stroke-width:0.8;" x="725.941875" xlink:href="#m1ba82e0127" y="1038.2"/>
      </g>
     </g>
     <g id="text_31">
      <!-- July -->
      <g transform="translate(716.949688 1052.798438)scale(0.1 -0.1)">
       <use xlink:href="#DejaVuSans-4a"/>
       <use x="29.492188" xlink:href="#DejaVuSans-75"/>
       <use x="92.871094" xlink:href="#DejaVuSans-6c"/>
       <use x="120.654297" xlink:href="#DejaVuSans-79"/>
      </g>
     </g>
    </g>
    <g id="xtick_48">
     <g id="line2d_84">
      <g>
       <use style="stroke:#000000;stroke-width:0.8;" x="829.790625" xlink:href="#m1ba82e0127" y="1038.2"/>
      </g>
     </g>
     <g id="text_32">
      <!-- August -->
      <g transform="translate(812.29375 1052.798438)scale(0.1 -0.1)">
       <use xlink:href="#DejaVuSans-41"/>
       <use x="68.408203" xlink:href="#DejaVuSans-75"/>
       <use x="131.787109" xlink:href="#DejaVuSans-67"/>
       <use x="195.263672" xlink:href="#DejaVuSans-75"/>
       <use x="258.642578" xlink:href="#DejaVuSans-73"/>
       <use x="310.742188" xlink:href="#DejaVuSans-74"/>
      </g>
     </g>
    </g>
    <g id="xtick_49">
     <g id="line2d_85">
      <g>
       <use style="stroke:#000000;stroke-width:0.8;" x="933.639375" xlink:href="#m1ba82e0127" y="1038.2"/>
      </g>
     </g>
     <g id="text_33">
      <!-- September -->
      <defs>
       <path d="M 53.515625 70.515625 
L 53.515625 60.890625 
Q 47.90625 63.578125 42.921875 64.890625 
Q 37.9375 66.21875 33.296875 66.21875 
Q 25.25 66.21875 20.875 63.09375 
Q 16.5 59.96875 16.5 54.203125 
Q 16.5 49.359375 19.40625 46.890625 
Q 22.3125 44.4375 30.421875 42.921875 
L 36.375 41.703125 
Q 47.40625 39.59375 52.65625 34.296875 
Q 57.90625 29 57.90625 20.125 
Q 57.90625 9.515625 50.796875 4.046875 
Q 43.703125 -1.421875 29.984375 -1.421875 
Q 24.8125 -1.421875 18.96875 -0.25 
Q 13.140625 0.921875 6.890625 3.21875 
L 6.890625 13.375 
Q 12.890625 10.015625 18.65625 8.296875 
Q 24.421875 6.59375 29.984375 6.59375 
Q 38.421875 6.59375 43.015625 9.90625 
Q 47.609375 13.234375 47.609375 19.390625 
Q 47.609375 24.75 44.3125 27.78125 
Q 41.015625 30.8125 33.5 32.328125 
L 27.484375 33.5 
Q 16.453125 35.6875 11.515625 40.375 
Q 6.59375 45.0625 6.59375 53.421875 
Q 6.59375 63.09375 13.40625 68.65625 
Q 20.21875 74.21875 32.171875 74.21875 
Q 37.3125 74.21875 42.625 73.28125 
Q 47.953125 72.359375 53.515625 70.515625 
z
" id="DejaVuSans-53"/>
       <path d="M 52 44.1875 
Q 55.375 50.25 60.0625 53.125 
Q 64.75 56 71.09375 56 
Q 79.640625 56 84.28125 50.015625 
Q 88.921875 44.046875 88.921875 33.015625 
L 88.921875 0 
L 79.890625 0 
L 79.890625 32.71875 
Q 79.890625 40.578125 77.09375 44.375 
Q 74.3125 48.1875 68.609375 48.1875 
Q 61.625 48.1875 57.5625 43.546875 
Q 53.515625 38.921875 53.515625 30.90625 
L 53.515625 0 
L 44.484375 0 
L 44.484375 32.71875 
Q 44.484375 40.625 41.703125 44.40625 
Q 38.921875 48.1875 33.109375 48.1875 
Q 26.21875 48.1875 22.15625 43.53125 
Q 18.109375 38.875 18.109375 30.90625 
L 18.109375 0 
L 9.078125 0 
L 9.078125 54.6875 
L 18.109375 54.6875 
L 18.109375 46.1875 
Q 21.1875 51.21875 25.484375 53.609375 
Q 29.78125 56 35.6875 56 
Q 41.65625 56 45.828125 52.96875 
Q 50 49.953125 52 44.1875 
z
" id="DejaVuSans-6d"/>
      </defs>
      <g transform="translate(906.001094 1052.798438)scale(0.1 -0.1)">
       <use xlink:href="#DejaVuSans-53"/>
       <use x="63.476562" xlink:href="#DejaVuSans-65"/>
       <use x="125" xlink:href="#DejaVuSans-70"/>
       <use x="188.476562" xlink:href="#DejaVuSans-74"/>
       <use x="227.685547" xlink:href="#DejaVuSans-65"/>
       <use x="289.208984" xlink:href="#DejaVuSans-6d"/>
       <use x="386.621094" xlink:href="#DejaVuSans-62"/>
       <use x="450.097656" xlink:href="#DejaVuSans-65"/>
       <use x="511.621094" xlink:href="#DejaVuSans-72"/>
      </g>
     </g>
    </g>
    <g id="xtick_50">
     <g id="line2d_86">
      <g>
       <use style="stroke:#000000;stroke-width:0.8;" x="1037.488125" xlink:href="#m1ba82e0127" y="1038.2"/>
      </g>
     </g>
     <g id="text_34">
      <!-- October -->
      <defs>
       <path d="M 39.40625 66.21875 
Q 28.65625 66.21875 22.328125 58.203125 
Q 16.015625 50.203125 16.015625 36.375 
Q 16.015625 22.609375 22.328125 14.59375 
Q 28.65625 6.59375 39.40625 6.59375 
Q 50.140625 6.59375 56.421875 14.59375 
Q 62.703125 22.609375 62.703125 36.375 
Q 62.703125 50.203125 56.421875 58.203125 
Q 50.140625 66.21875 39.40625 66.21875 
z
M 39.40625 74.21875 
Q 54.734375 74.21875 63.90625 63.9375 
Q 73.09375 53.65625 73.09375 36.375 
Q 73.09375 19.140625 63.90625 8.859375 
Q 54.734375 -1.421875 39.40625 -1.421875 
Q 24.03125 -1.421875 14.8125 8.828125 
Q 5.609375 19.09375 5.609375 36.375 
Q 5.609375 53.65625 14.8125 63.9375 
Q 24.03125 74.21875 39.40625 74.21875 
z
" id="DejaVuSans-4f"/>
      </defs>
      <g transform="translate(1017.477188 1052.798438)scale(0.1 -0.1)">
       <use xlink:href="#DejaVuSans-4f"/>
       <use x="78.710938" xlink:href="#DejaVuSans-63"/>
       <use x="133.691406" xlink:href="#DejaVuSans-74"/>
       <use x="172.900391" xlink:href="#DejaVuSans-6f"/>
       <use x="234.082031" xlink:href="#DejaVuSans-62"/>
       <use x="297.558594" xlink:href="#DejaVuSans-65"/>
       <use x="359.082031" xlink:href="#DejaVuSans-72"/>
      </g>
     </g>
    </g>
    <g id="text_35">
     <!-- Month -->
     <g transform="translate(554.497656 1066.476562)scale(0.1 -0.1)">
      <use xlink:href="#DejaVuSans-4d"/>
      <use x="86.279297" xlink:href="#DejaVuSans-6f"/>
      <use x="147.460938" xlink:href="#DejaVuSans-6e"/>
      <use x="210.839844" xlink:href="#DejaVuSans-74"/>
      <use x="250.048828" xlink:href="#DejaVuSans-68"/>
     </g>
    </g>
   </g>
   <g id="matplotlib.axis_10">
    <g id="ytick_37">
     <g id="line2d_87">
      <g>
       <use style="stroke:#000000;stroke-width:0.8;" x="50.925" xlink:href="#m5e34e4d513" y="1038.2"/>
      </g>
     </g>
     <g id="text_36">
      <!-- 0 -->
      <g transform="translate(37.5625 1041.999219)scale(0.1 -0.1)">
       <use xlink:href="#DejaVuSans-30"/>
      </g>
     </g>
    </g>
    <g id="ytick_38">
     <g id="line2d_88">
      <g>
       <use style="stroke:#000000;stroke-width:0.8;" x="50.925" xlink:href="#m5e34e4d513" y="1002.841"/>
      </g>
     </g>
     <g id="text_37">
      <!-- 25 -->
      <g transform="translate(31.2 1006.640218)scale(0.1 -0.1)">
       <use xlink:href="#DejaVuSans-32"/>
       <use x="63.623047" xlink:href="#DejaVuSans-35"/>
      </g>
     </g>
    </g>
    <g id="ytick_39">
     <g id="line2d_89">
      <g>
       <use style="stroke:#000000;stroke-width:0.8;" x="50.925" xlink:href="#m5e34e4d513" y="967.481999"/>
      </g>
     </g>
     <g id="text_38">
      <!-- 50 -->
      <g transform="translate(31.2 971.281218)scale(0.1 -0.1)">
       <use xlink:href="#DejaVuSans-35"/>
       <use x="63.623047" xlink:href="#DejaVuSans-30"/>
      </g>
     </g>
    </g>
    <g id="ytick_40">
     <g id="line2d_90">
      <g>
       <use style="stroke:#000000;stroke-width:0.8;" x="50.925" xlink:href="#m5e34e4d513" y="932.122999"/>
      </g>
     </g>
     <g id="text_39">
      <!-- 75 -->
      <g transform="translate(31.2 935.922218)scale(0.1 -0.1)">
       <use xlink:href="#DejaVuSans-37"/>
       <use x="63.623047" xlink:href="#DejaVuSans-35"/>
      </g>
     </g>
    </g>
    <g id="ytick_41">
     <g id="line2d_91">
      <g>
       <use style="stroke:#000000;stroke-width:0.8;" x="50.925" xlink:href="#m5e34e4d513" y="896.763999"/>
      </g>
     </g>
     <g id="text_40">
      <!-- 100 -->
      <g transform="translate(24.8375 900.563217)scale(0.1 -0.1)">
       <use xlink:href="#DejaVuSans-31"/>
       <use x="63.623047" xlink:href="#DejaVuSans-30"/>
       <use x="127.246094" xlink:href="#DejaVuSans-30"/>
      </g>
     </g>
    </g>
    <g id="ytick_42">
     <g id="line2d_92">
      <g>
       <use style="stroke:#000000;stroke-width:0.8;" x="50.925" xlink:href="#m5e34e4d513" y="861.404998"/>
      </g>
     </g>
     <g id="text_41">
      <!-- 125 -->
      <g transform="translate(24.8375 865.204217)scale(0.1 -0.1)">
       <use xlink:href="#DejaVuSans-31"/>
       <use x="63.623047" xlink:href="#DejaVuSans-32"/>
       <use x="127.246094" xlink:href="#DejaVuSans-35"/>
      </g>
     </g>
    </g>
    <g id="ytick_43">
     <g id="line2d_93">
      <g>
       <use style="stroke:#000000;stroke-width:0.8;" x="50.925" xlink:href="#m5e34e4d513" y="826.045998"/>
      </g>
     </g>
     <g id="text_42">
      <!-- 150 -->
      <g transform="translate(24.8375 829.845217)scale(0.1 -0.1)">
       <use xlink:href="#DejaVuSans-31"/>
       <use x="63.623047" xlink:href="#DejaVuSans-35"/>
       <use x="127.246094" xlink:href="#DejaVuSans-30"/>
      </g>
     </g>
    </g>
    <g id="ytick_44">
     <g id="line2d_94">
      <g>
       <use style="stroke:#000000;stroke-width:0.8;" x="50.925" xlink:href="#m5e34e4d513" y="790.686998"/>
      </g>
     </g>
     <g id="text_43">
      <!-- 175 -->
      <g transform="translate(24.8375 794.486216)scale(0.1 -0.1)">
       <use xlink:href="#DejaVuSans-31"/>
       <use x="63.623047" xlink:href="#DejaVuSans-37"/>
       <use x="127.246094" xlink:href="#DejaVuSans-35"/>
      </g>
     </g>
    </g>
    <g id="ytick_45">
     <g id="line2d_95">
      <g>
       <use style="stroke:#000000;stroke-width:0.8;" x="50.925" xlink:href="#m5e34e4d513" y="755.327997"/>
      </g>
     </g>
     <g id="text_44">
      <!-- 200 -->
      <g transform="translate(24.8375 759.127216)scale(0.1 -0.1)">
       <use xlink:href="#DejaVuSans-32"/>
       <use x="63.623047" xlink:href="#DejaVuSans-30"/>
       <use x="127.246094" xlink:href="#DejaVuSans-30"/>
      </g>
     </g>
    </g>
    <g id="text_45">
     <!-- AverageUsageMonth -->
     <g transform="translate(18.757812 931.639323)rotate(-90)scale(0.1 -0.1)">
      <use xlink:href="#DejaVuSans-41"/>
      <use x="68.330078" xlink:href="#DejaVuSans-76"/>
      <use x="127.509766" xlink:href="#DejaVuSans-65"/>
      <use x="189.033203" xlink:href="#DejaVuSans-72"/>
      <use x="230.146484" xlink:href="#DejaVuSans-61"/>
      <use x="291.425781" xlink:href="#DejaVuSans-67"/>
      <use x="354.902344" xlink:href="#DejaVuSans-65"/>
      <use x="416.425781" xlink:href="#DejaVuSans-55"/>
      <use x="489.619141" xlink:href="#DejaVuSans-73"/>
      <use x="541.71875" xlink:href="#DejaVuSans-61"/>
      <use x="602.998047" xlink:href="#DejaVuSans-67"/>
      <use x="666.474609" xlink:href="#DejaVuSans-65"/>
      <use x="727.998047" xlink:href="#DejaVuSans-4d"/>
      <use x="814.277344" xlink:href="#DejaVuSans-6f"/>
      <use x="875.458984" xlink:href="#DejaVuSans-6e"/>
      <use x="938.837891" xlink:href="#DejaVuSans-74"/>
      <use x="978.046875" xlink:href="#DejaVuSans-68"/>
     </g>
    </g>
   </g>
   <g id="patch_65">
    <path d="M 50.925 1038.2 
L 50.925 720.933333 
" style="fill:none;stroke:#000000;stroke-linecap:square;stroke-linejoin:miter;stroke-width:0.8;"/>
   </g>
   <g id="patch_66">
    <path d="M 50.925 1038.2 
L 1089.4125 1038.2 
" style="fill:none;stroke:#000000;stroke-linecap:square;stroke-linejoin:miter;stroke-width:0.8;"/>
   </g>
   <g id="text_46">
    <!-- City = Stirling -->
    <g transform="translate(535.300781 714.933333)scale(0.1 -0.1)">
     <use xlink:href="#DejaVuSans-43"/>
     <use x="69.824219" xlink:href="#DejaVuSans-69"/>
     <use x="97.607422" xlink:href="#DejaVuSans-74"/>
     <use x="136.816406" xlink:href="#DejaVuSans-79"/>
     <use x="195.996094" xlink:href="#DejaVuSans-20"/>
     <use x="227.783203" xlink:href="#DejaVuSans-3d"/>
     <use x="311.572266" xlink:href="#DejaVuSans-20"/>
     <use x="343.359375" xlink:href="#DejaVuSans-53"/>
     <use x="406.835938" xlink:href="#DejaVuSans-74"/>
     <use x="446.044922" xlink:href="#DejaVuSans-69"/>
     <use x="473.828125" xlink:href="#DejaVuSans-72"/>
     <use x="514.941406" xlink:href="#DejaVuSans-6c"/>
     <use x="542.724609" xlink:href="#DejaVuSans-69"/>
     <use x="570.507812" xlink:href="#DejaVuSans-6e"/>
     <use x="633.886719" xlink:href="#DejaVuSans-67"/>
    </g>
   </g>
  </g>
  <g id="axes_6">
   <g id="patch_67">
    <path d="M 1107.2125 1038.2 
L 2145.7 1038.2 
L 2145.7 720.933333 
L 1107.2125 720.933333 
z
" style="fill:#ffffff;"/>
   </g>
   <g id="patch_68">
    <path clip-path="url(#p0e05d6c5dc)" d="M 1117.597375 1038.2 
L 1200.676375 1038.2 
L 1200.676375 889.220745 
L 1117.597375 889.220745 
z
" style="fill:#44708f;"/>
   </g>
   <g id="patch_69">
    <path clip-path="url(#p0e05d6c5dc)" d="M 1221.446125 1038.2 
L 1304.525125 1038.2 
L 1304.525125 931.808697 
L 1221.446125 931.808697 
z
" style="fill:#c3834a;"/>
   </g>
   <g id="patch_70">
    <path clip-path="url(#p0e05d6c5dc)" d="M 1325.294875 1038.2 
L 1408.373875 1038.2 
L 1408.373875 960.724501 
L 1325.294875 960.724501 
z
" style="fill:#498349;"/>
   </g>
   <g id="patch_71">
    <path clip-path="url(#p0e05d6c5dc)" d="M 1429.143625 1038.2 
L 1512.222625 1038.2 
L 1512.222625 966.696244 
L 1429.143625 966.696244 
z
" style="fill:#aa5353;"/>
   </g>
   <g id="patch_72">
    <path clip-path="url(#p0e05d6c5dc)" d="M 1532.992375 1038.2 
L 1616.071375 1038.2 
L 1616.071375 958.367235 
L 1532.992375 958.367235 
z
" style="fill:#937ca8;"/>
   </g>
   <g id="patch_73">
    <path clip-path="url(#p0e05d6c5dc)" d="M 1636.841125 1038.2 
L 1719.920125 1038.2 
L 1719.920125 1009.598498 
L 1636.841125 1009.598498 
z
" style="fill:#7c615b;"/>
   </g>
   <g id="patch_74">
    <path clip-path="url(#p0e05d6c5dc)" d="M 1740.689875 1038.2 
L 1823.768875 1038.2 
L 1823.768875 1005.041115 
L 1740.689875 1005.041115 
z
" style="fill:#c892b7;"/>
   </g>
   <g id="patch_75">
    <path clip-path="url(#p0e05d6c5dc)" d="M 1844.538625 1038.2 
L 1927.617625 1038.2 
L 1927.617625 1015.255938 
L 1844.538625 1015.255938 
z
" style="fill:#7f7f7f;"/>
   </g>
   <g id="patch_76">
    <path clip-path="url(#p0e05d6c5dc)" d="M 1948.387375 1038.2 
L 2031.466375 1038.2 
L 2031.466375 1015.727391 
L 1948.387375 1015.727391 
z
" style="fill:#969649;"/>
   </g>
   <g id="patch_77">
    <path clip-path="url(#p0e05d6c5dc)" d="M 2052.236125 1038.2 
L 2135.315125 1038.2 
L 2135.315125 998.59792 
L 2052.236125 998.59792 
z
" style="fill:#4598a1;"/>
   </g>
   <g id="matplotlib.axis_11">
    <g id="xtick_51">
     <g id="line2d_96">
      <g>
       <use style="stroke:#000000;stroke-width:0.8;" x="1159.136875" xlink:href="#m1ba82e0127" y="1038.2"/>
      </g>
     </g>
     <g id="text_47">
      <!-- January -->
      <g transform="translate(1140.181406 1052.798438)scale(0.1 -0.1)">
       <use xlink:href="#DejaVuSans-4a"/>
       <use x="29.492188" xlink:href="#DejaVuSans-61"/>
       <use x="90.771484" xlink:href="#DejaVuSans-6e"/>
       <use x="154.150391" xlink:href="#DejaVuSans-75"/>
       <use x="217.529297" xlink:href="#DejaVuSans-61"/>
       <use x="278.808594" xlink:href="#DejaVuSans-72"/>
       <use x="319.921875" xlink:href="#DejaVuSans-79"/>
      </g>
     </g>
    </g>
    <g id="xtick_52">
     <g id="line2d_97">
      <g>
       <use style="stroke:#000000;stroke-width:0.8;" x="1262.985625" xlink:href="#m1ba82e0127" y="1038.2"/>
      </g>
     </g>
     <g id="text_48">
      <!-- February -->
      <g transform="translate(1240.559844 1052.798438)scale(0.1 -0.1)">
       <use xlink:href="#DejaVuSans-46"/>
       <use x="57.441406" xlink:href="#DejaVuSans-65"/>
       <use x="118.964844" xlink:href="#DejaVuSans-62"/>
       <use x="182.441406" xlink:href="#DejaVuSans-72"/>
       <use x="223.554688" xlink:href="#DejaVuSans-75"/>
       <use x="286.933594" xlink:href="#DejaVuSans-61"/>
       <use x="348.212891" xlink:href="#DejaVuSans-72"/>
       <use x="389.326172" xlink:href="#DejaVuSans-79"/>
      </g>
     </g>
    </g>
    <g id="xtick_53">
     <g id="line2d_98">
      <g>
       <use style="stroke:#000000;stroke-width:0.8;" x="1366.834375" xlink:href="#m1ba82e0127" y="1038.2"/>
      </g>
     </g>
     <g id="text_49">
      <!-- March -->
      <g transform="translate(1351.484375 1052.798438)scale(0.1 -0.1)">
       <use xlink:href="#DejaVuSans-4d"/>
       <use x="86.279297" xlink:href="#DejaVuSans-61"/>
       <use x="147.558594" xlink:href="#DejaVuSans-72"/>
       <use x="188.640625" xlink:href="#DejaVuSans-63"/>
       <use x="243.621094" xlink:href="#DejaVuSans-68"/>
      </g>
     </g>
    </g>
    <g id="xtick_54">
     <g id="line2d_99">
      <g>
       <use style="stroke:#000000;stroke-width:0.8;" x="1470.683125" xlink:href="#m1ba82e0127" y="1038.2"/>
      </g>
     </g>
     <g id="text_50">
      <!-- April -->
      <g transform="translate(1459.255 1052.798438)scale(0.1 -0.1)">
       <use xlink:href="#DejaVuSans-41"/>
       <use x="68.408203" xlink:href="#DejaVuSans-70"/>
       <use x="131.884766" xlink:href="#DejaVuSans-72"/>
       <use x="172.998047" xlink:href="#DejaVuSans-69"/>
       <use x="200.78125" xlink:href="#DejaVuSans-6c"/>
      </g>
     </g>
    </g>
    <g id="xtick_55">
     <g id="line2d_100">
      <g>
       <use style="stroke:#000000;stroke-width:0.8;" x="1574.531875" xlink:href="#m1ba82e0127" y="1038.2"/>
      </g>
     </g>
     <g id="text_51">
      <!-- May -->
      <g transform="translate(1564.194375 1052.798438)scale(0.1 -0.1)">
       <use xlink:href="#DejaVuSans-4d"/>
       <use x="86.279297" xlink:href="#DejaVuSans-61"/>
       <use x="147.558594" xlink:href="#DejaVuSans-79"/>
      </g>
     </g>
    </g>
    <g id="xtick_56">
     <g id="line2d_101">
      <g>
       <use style="stroke:#000000;stroke-width:0.8;" x="1678.380625" xlink:href="#m1ba82e0127" y="1038.2"/>
      </g>
     </g>
     <g id="text_52">
      <!-- June -->
      <g transform="translate(1667.491563 1052.798438)scale(0.1 -0.1)">
       <use xlink:href="#DejaVuSans-4a"/>
       <use x="29.492188" xlink:href="#DejaVuSans-75"/>
       <use x="92.871094" xlink:href="#DejaVuSans-6e"/>
       <use x="156.25" xlink:href="#DejaVuSans-65"/>
      </g>
     </g>
    </g>
    <g id="xtick_57">
     <g id="line2d_102">
      <g>
       <use style="stroke:#000000;stroke-width:0.8;" x="1782.229375" xlink:href="#m1ba82e0127" y="1038.2"/>
      </g>
     </g>
     <g id="text_53">
      <!-- July -->
      <g transform="translate(1773.237188 1052.798438)scale(0.1 -0.1)">
       <use xlink:href="#DejaVuSans-4a"/>
       <use x="29.492188" xlink:href="#DejaVuSans-75"/>
       <use x="92.871094" xlink:href="#DejaVuSans-6c"/>
       <use x="120.654297" xlink:href="#DejaVuSans-79"/>
      </g>
     </g>
    </g>
    <g id="xtick_58">
     <g id="line2d_103">
      <g>
       <use style="stroke:#000000;stroke-width:0.8;" x="1886.078125" xlink:href="#m1ba82e0127" y="1038.2"/>
      </g>
     </g>
     <g id="text_54">
      <!-- August -->
      <g transform="translate(1868.58125 1052.798438)scale(0.1 -0.1)">
       <use xlink:href="#DejaVuSans-41"/>
       <use x="68.408203" xlink:href="#DejaVuSans-75"/>
       <use x="131.787109" xlink:href="#DejaVuSans-67"/>
       <use x="195.263672" xlink:href="#DejaVuSans-75"/>
       <use x="258.642578" xlink:href="#DejaVuSans-73"/>
       <use x="310.742188" xlink:href="#DejaVuSans-74"/>
      </g>
     </g>
    </g>
    <g id="xtick_59">
     <g id="line2d_104">
      <g>
       <use style="stroke:#000000;stroke-width:0.8;" x="1989.926875" xlink:href="#m1ba82e0127" y="1038.2"/>
      </g>
     </g>
     <g id="text_55">
      <!-- September -->
      <g transform="translate(1962.288594 1052.798438)scale(0.1 -0.1)">
       <use xlink:href="#DejaVuSans-53"/>
       <use x="63.476562" xlink:href="#DejaVuSans-65"/>
       <use x="125" xlink:href="#DejaVuSans-70"/>
       <use x="188.476562" xlink:href="#DejaVuSans-74"/>
       <use x="227.685547" xlink:href="#DejaVuSans-65"/>
       <use x="289.208984" xlink:href="#DejaVuSans-6d"/>
       <use x="386.621094" xlink:href="#DejaVuSans-62"/>
       <use x="450.097656" xlink:href="#DejaVuSans-65"/>
       <use x="511.621094" xlink:href="#DejaVuSans-72"/>
      </g>
     </g>
    </g>
    <g id="xtick_60">
     <g id="line2d_105">
      <g>
       <use style="stroke:#000000;stroke-width:0.8;" x="2093.775625" xlink:href="#m1ba82e0127" y="1038.2"/>
      </g>
     </g>
     <g id="text_56">
      <!-- October -->
      <g transform="translate(2073.764688 1052.798438)scale(0.1 -0.1)">
       <use xlink:href="#DejaVuSans-4f"/>
       <use x="78.710938" xlink:href="#DejaVuSans-63"/>
       <use x="133.691406" xlink:href="#DejaVuSans-74"/>
       <use x="172.900391" xlink:href="#DejaVuSans-6f"/>
       <use x="234.082031" xlink:href="#DejaVuSans-62"/>
       <use x="297.558594" xlink:href="#DejaVuSans-65"/>
       <use x="359.082031" xlink:href="#DejaVuSans-72"/>
      </g>
     </g>
    </g>
    <g id="text_57">
     <!-- Month -->
     <g transform="translate(1610.785156 1066.476562)scale(0.1 -0.1)">
      <use xlink:href="#DejaVuSans-4d"/>
      <use x="86.279297" xlink:href="#DejaVuSans-6f"/>
      <use x="147.460938" xlink:href="#DejaVuSans-6e"/>
      <use x="210.839844" xlink:href="#DejaVuSans-74"/>
      <use x="250.048828" xlink:href="#DejaVuSans-68"/>
     </g>
    </g>
   </g>
   <g id="matplotlib.axis_12">
    <g id="ytick_46">
     <g id="line2d_106">
      <g>
       <use style="stroke:#000000;stroke-width:0.8;" x="1107.2125" xlink:href="#m5e34e4d513" y="1038.2"/>
      </g>
     </g>
    </g>
    <g id="ytick_47">
     <g id="line2d_107">
      <g>
       <use style="stroke:#000000;stroke-width:0.8;" x="1107.2125" xlink:href="#m5e34e4d513" y="1002.841"/>
      </g>
     </g>
    </g>
    <g id="ytick_48">
     <g id="line2d_108">
      <g>
       <use style="stroke:#000000;stroke-width:0.8;" x="1107.2125" xlink:href="#m5e34e4d513" y="967.481999"/>
      </g>
     </g>
    </g>
    <g id="ytick_49">
     <g id="line2d_109">
      <g>
       <use style="stroke:#000000;stroke-width:0.8;" x="1107.2125" xlink:href="#m5e34e4d513" y="932.122999"/>
      </g>
     </g>
    </g>
    <g id="ytick_50">
     <g id="line2d_110">
      <g>
       <use style="stroke:#000000;stroke-width:0.8;" x="1107.2125" xlink:href="#m5e34e4d513" y="896.763999"/>
      </g>
     </g>
    </g>
    <g id="ytick_51">
     <g id="line2d_111">
      <g>
       <use style="stroke:#000000;stroke-width:0.8;" x="1107.2125" xlink:href="#m5e34e4d513" y="861.404998"/>
      </g>
     </g>
    </g>
    <g id="ytick_52">
     <g id="line2d_112">
      <g>
       <use style="stroke:#000000;stroke-width:0.8;" x="1107.2125" xlink:href="#m5e34e4d513" y="826.045998"/>
      </g>
     </g>
    </g>
    <g id="ytick_53">
     <g id="line2d_113">
      <g>
       <use style="stroke:#000000;stroke-width:0.8;" x="1107.2125" xlink:href="#m5e34e4d513" y="790.686998"/>
      </g>
     </g>
    </g>
    <g id="ytick_54">
     <g id="line2d_114">
      <g>
       <use style="stroke:#000000;stroke-width:0.8;" x="1107.2125" xlink:href="#m5e34e4d513" y="755.327997"/>
      </g>
     </g>
    </g>
   </g>
   <g id="patch_78">
    <path d="M 1107.2125 1038.2 
L 1107.2125 720.933333 
" style="fill:none;stroke:#000000;stroke-linecap:square;stroke-linejoin:miter;stroke-width:0.8;"/>
   </g>
   <g id="patch_79">
    <path d="M 1107.2125 1038.2 
L 2145.7 1038.2 
" style="fill:none;stroke:#000000;stroke-linecap:square;stroke-linejoin:miter;stroke-width:0.8;"/>
   </g>
   <g id="text_58">
    <!-- City = Aberdeen -->
    <g transform="translate(1585.066406 714.933333)scale(0.1 -0.1)">
     <use xlink:href="#DejaVuSans-43"/>
     <use x="69.824219" xlink:href="#DejaVuSans-69"/>
     <use x="97.607422" xlink:href="#DejaVuSans-74"/>
     <use x="136.816406" xlink:href="#DejaVuSans-79"/>
     <use x="195.996094" xlink:href="#DejaVuSans-20"/>
     <use x="227.783203" xlink:href="#DejaVuSans-3d"/>
     <use x="311.572266" xlink:href="#DejaVuSans-20"/>
     <use x="343.359375" xlink:href="#DejaVuSans-41"/>
     <use x="411.767578" xlink:href="#DejaVuSans-62"/>
     <use x="475.244141" xlink:href="#DejaVuSans-65"/>
     <use x="536.767578" xlink:href="#DejaVuSans-72"/>
     <use x="577.865234" xlink:href="#DejaVuSans-64"/>
     <use x="641.341797" xlink:href="#DejaVuSans-65"/>
     <use x="702.865234" xlink:href="#DejaVuSans-65"/>
     <use x="764.388672" xlink:href="#DejaVuSans-6e"/>
    </g>
   </g>
  </g>
 </g>
 <defs>
  <clipPath id="pa841a785e5">
   <rect height="317.266667" width="1038.4875" x="50.925" y="24.8"/>
  </clipPath>
  <clipPath id="p259bbfbab1">
   <rect height="317.266667" width="1038.4875" x="1107.2125" y="24.8"/>
  </clipPath>
  <clipPath id="pd20438bac4">
   <rect height="317.266667" width="1038.4875" x="50.925" y="372.866667"/>
  </clipPath>
  <clipPath id="pf5c8ee0569">
   <rect height="317.266667" width="1038.4875" x="1107.2125" y="372.866667"/>
  </clipPath>
  <clipPath id="p49a0f11f32">
   <rect height="317.266667" width="1038.4875" x="50.925" y="720.933333"/>
  </clipPath>
  <clipPath id="p0e05d6c5dc">
   <rect height="317.266667" width="1038.4875" x="1107.2125" y="720.933333"/>
  </clipPath>
 </defs>
</svg>
